<svg width="24" height="24" viewBox="0 0 24 24" fill="none" xmlns="http://www.w3.org/2000/svg">
<g clip-path="url(#clip0_742_2772)">
<path d="M6 9.5V14" stroke="#FFBA89" stroke-width="2" stroke-linecap="round"/>
<path d="M18 9.5V14" stroke="#FFBA89" stroke-width="2" stroke-linecap="round"/>
<path d="M4.5 17V21.5" stroke="#FFBA89" stroke-width="2" stroke-linecap="round"/>
<path d="M19.5 17V21.5" stroke="#FFBA89" stroke-width="2" stroke-linecap="round"/>
<path d="M19.5 2.75H4.5C3.25736 2.75 2.25 3.75736 2.25 5V8C2.25 9.24264 3.25736 10.25 4.5 10.25H19.5C20.7426 10.25 21.75 9.24264 21.75 8V5C21.75 3.75736 20.7426 2.75 19.5 2.75Z" fill="#FF7512" stroke="#FF7512"/>
<path d="M22.5 14H1.5C1.08579 14 0.75 14.3358 0.75 14.75V16.25C0.75 16.6642 1.08579 17 1.5 17H22.5C22.9142 17 23.25 16.6642 23.25 16.25V14.75C23.25 14.3358 22.9142 14 22.5 14Z" fill="#FF7512" stroke="#FF7512"/>
</g>
<defs>
<clipPath id="clip0_742_2772">
<rect width="24" height="21" fill="white" transform="translate(0 2)"/>
</clipPath>
</defs>
</svg>
