<svg width="24" height="24" viewBox="0 0 24 24" fill="none" xmlns="http://www.w3.org/2000/svg">
<g clip-path="url(#clip0_742_2772)">
<path d="M22.7946 16.2944H0.735309C0.329209 16.2944 0 16.6236 0 17.0297C0 17.4358 0.329209 17.765 0.735309 17.765H22.7946C23.2007 17.765 23.5299 17.4358 23.5299 17.0297C23.5299 16.6236 23.2007 16.2944 22.7946 16.2944Z" fill="#FFBA89"/>
<path d="M11.9016 11.8828H2.8033C2.06692 11.8828 1.46997 12.4798 1.46997 13.2161V13.4907C1.46997 14.2271 2.06692 14.8241 2.8033 14.8241H11.9016C12.638 14.8241 13.2349 14.2271 13.2349 13.4907V13.2161C13.2349 12.4798 12.638 11.8828 11.9016 11.8828Z" fill="#FFBA89"/>
<path d="M20.8776 6.64964L11.1152 12.0879C10.4719 12.4463 10.2409 13.2583 10.5993 13.9016L10.7329 14.1415C11.0913 14.7848 11.9033 15.0158 12.5466 14.6574L22.309 9.21909C22.9523 8.86073 23.1833 8.04873 22.8249 7.40543L22.6913 7.16556C22.3329 6.52226 21.5209 6.29128 20.8776 6.64964Z" fill="#FFBA89"/>
<path d="M23.5375 10.5896L11.8901 17.078C11.8203 17.1169 11.8508 17.3049 11.9583 17.4979L11.9583 17.4979C12.0658 17.6909 12.2096 17.8158 12.2794 17.7769L23.9268 11.2885C23.9967 11.2496 23.9661 11.0616 23.8586 10.8686C23.7511 10.6756 23.6073 10.5507 23.5375 10.5896Z" fill="#FFBA89"/>
<path d="M21.5301 16.4307L19.7024 13.2651C19.6618 13.1947 19.4738 13.2272 19.2825 13.3377L19.2825 13.3377C19.0912 13.4482 18.969 13.5947 19.0096 13.6651L20.8373 16.8307C20.8779 16.9011 21.066 16.8686 21.2573 16.7581L21.2573 16.7581C21.4486 16.6476 21.5708 16.5011 21.5301 16.4307Z" fill="#FFBA89"/>
</g>
<defs>
<clipPath id="clip0_742_2772">
<rect width="24" height="12" fill="white" transform="translate(0 6)"/>
</clipPath>
</defs>
</svg>
