<svg width="49" height="48" viewBox="0 0 49 48" fill="none" xmlns="http://www.w3.org/2000/svg">
<path d="M47.78 23.2581C47.78 30.4174 37.3567 42.0546 24.4991 42.0546C11.6415 42.0546 1.21826 30.4174 1.21826 23.2581C1.21826 16.0987 11.6415 10.2949 24.4991 10.2949C37.3567 10.2949 47.78 16.0987 47.78 23.2581Z" fill="url(#paint0_linear_742_2760)"/>
<path d="M24.4993 36.2212C37.357 36.2212 47.7802 30.4174 47.7802 23.2581C47.7802 16.0987 37.357 10.2949 24.4993 10.2949C11.6417 10.2949 1.21851 16.0987 1.21851 23.2581C1.21851 30.4174 11.6417 36.2212 24.4993 36.2212Z" fill="#737373"/>
<path d="M24.4996 36.2237C36.643 36.2237 46.4871 30.7101 46.4871 23.9087C46.4871 17.1074 36.643 11.5938 24.4996 11.5938C12.3563 11.5938 2.51221 17.1074 2.51221 23.9087C2.51221 30.7101 12.3563 36.2237 24.4996 36.2237Z" fill="#333536"/>
<path d="M24.5002 36.2223C35.9292 36.2223 45.1942 30.9989 45.1942 24.5555C45.1942 18.1121 35.9292 12.8887 24.5002 12.8887C13.0712 12.8887 3.80615 18.1121 3.80615 24.5555C3.80615 30.9989 13.0712 36.2223 24.5002 36.2223Z" fill="url(#paint1_radial_742_2760)"/>
<path d="M28.2791 18.941C27.4633 21.1612 24.0783 23.6986 18.8962 23.6986C14.0007 23.3815 9.51318 21.5686 9.51318 18.941C9.51318 16.4989 13.0371 15.0345 17.7924 14.3306C18.5246 14.2223 19.2688 14.2025 20.0023 14.302C23.872 14.8274 28.2791 16.5457 28.2791 18.941Z" fill="#FDF8F4"/>
<path d="M18.8994 23.0645C23.6308 23.0645 27.4664 21.2184 27.4664 18.9412C27.4664 16.6639 23.6308 14.8179 18.8994 14.8179C14.1679 14.8179 10.3323 16.6639 10.3323 18.9412C10.3323 21.2184 14.1679 23.0645 18.8994 23.0645Z" fill="#EEC9A4"/>
<path d="M27.4664 18.9414C27.4664 20.8683 22.7296 22.7475 18.8993 22.7475C15.0691 22.7475 10.3323 20.8683 10.3323 18.9414C10.3323 17.0145 15.0691 15.1353 18.8993 15.1353C22.7296 15.1353 27.4664 17.0145 27.4664 18.9414Z" fill="#FDF8F4"/>
<path d="M23.7912 17.0382C25.0151 16.721 27.8708 21.4791 19.7116 21.7963C18.708 21.7963 15.4741 20.9268 14.4082 20.5276C12.8418 19.941 12.7764 19.037 12.7764 18.3074C12.7764 17.0812 15.6014 16.4043 18.0798 16.4043C20.5581 16.4043 22.9753 16.4048 23.7912 17.0382Z" fill="#FDF8F4"/>
<path d="M25.8323 19.2124C25.8323 19.6498 24.2856 20.7416 22.4236 21.0589C20.6677 21.3581 18.6138 20.9005 17.8786 20.7511C15.996 20.7511 12.9545 19.8277 13.7124 18.5969C13.7124 17.7471 15.2274 16.7504 18.6353 16.7504C19.5492 16.7504 21.6503 16.5699 23.181 17.058C24.8039 17.5755 25.8323 18.7751 25.8323 19.2124Z" fill="#EEC9A4"/>
<path d="M41.3372 20.2139C40.5213 22.4342 37.1363 24.9716 31.9542 24.9716C27.0587 24.6544 22.5713 22.8415 22.5713 20.2139C22.5713 17.7718 26.0951 16.3074 30.8504 15.6036C31.5826 15.4952 32.3268 15.4754 33.0603 15.575C36.93 16.1003 41.3372 17.8186 41.3372 20.2139Z" fill="#FDF8F4"/>
<path d="M31.9572 24.3374C36.6887 24.3374 40.5243 22.4914 40.5243 20.2141C40.5243 17.9369 36.6887 16.0908 31.9572 16.0908C27.2257 16.0908 23.3901 17.9369 23.3901 20.2141C23.3901 22.4914 27.2257 24.3374 31.9572 24.3374Z" fill="#EEC9A4"/>
<path d="M40.5243 20.2143C40.5243 22.1412 35.7875 24.0204 31.9572 24.0204C28.1271 24.0204 23.3901 22.1412 23.3901 20.2143C23.3901 18.2874 28.1271 16.4082 31.9572 16.4082C35.7875 16.4082 40.5243 18.2874 40.5243 20.2143Z" fill="#FDF8F4"/>
<path d="M36.8491 18.3111C38.0729 17.994 40.9287 22.7521 32.7694 23.0693C31.7659 23.0693 28.5319 22.1997 27.4661 21.8006C25.8996 21.2139 25.8342 20.31 25.8342 19.5803C25.8342 18.3541 28.6593 17.6772 31.1377 17.6772C33.616 17.6772 36.0332 17.6777 36.8491 18.3111Z" fill="#FDF8F4"/>
<path d="M38.8902 20.4853C38.8902 20.9227 37.3435 22.0145 35.4815 22.3318C33.7256 22.631 31.6717 22.1734 30.9365 22.0241C29.054 22.0241 26.0124 21.1007 26.7702 19.8698C26.7702 19.02 28.2852 18.0234 31.6932 18.0234C32.607 18.0234 34.7082 17.8428 36.2389 18.331C37.8617 18.8485 38.8902 20.048 38.8902 20.4853Z" fill="#EEC9A4"/>
<path d="M16.0422 30.3594C16.8582 32.5796 20.2431 35.1171 25.4253 35.1171C30.3207 34.8 34.8082 32.987 34.8082 30.3594C34.8082 27.9173 31.2843 26.453 26.5291 25.7491C25.7969 25.6407 25.0527 25.6209 24.3192 25.7205C20.4495 26.2458 16.0422 27.9641 16.0422 30.3594Z" fill="#FDF8F4"/>
<path d="M25.4224 34.483C20.6909 34.483 16.8553 32.6369 16.8553 30.3596C16.8553 28.0824 20.6909 26.2363 25.4224 26.2363C30.1539 26.2363 33.9895 28.0824 33.9895 30.3596C33.9895 32.6369 30.1539 34.483 25.4224 34.483Z" fill="#EEC9A4"/>
<path d="M16.8552 30.3559C16.8552 32.2827 21.5921 34.162 25.4224 34.162C29.2525 34.162 33.9895 32.2827 33.9895 30.3559C33.9895 28.429 29.2525 26.5498 25.4224 26.5498C21.5921 26.5498 16.8552 28.429 16.8552 30.3559Z" fill="#FDF8F4"/>
<path d="M20.5285 28.4561C19.3046 28.139 16.4489 32.8971 24.6081 33.2142C25.6116 33.2142 28.8456 32.3448 29.9114 31.9456C31.4779 31.3589 31.5433 30.4549 31.5433 29.7252C31.5433 28.4992 28.7182 27.8223 26.2398 27.8223C23.7615 27.8223 21.3443 27.8227 20.5285 28.4561Z" fill="#FDF8F4"/>
<path d="M18.4893 30.6308C18.4893 31.0683 20.036 32.16 21.898 32.4774C23.6539 32.7766 25.7077 32.3189 26.4429 32.1697C28.3255 32.1697 31.3671 31.2462 30.6093 30.0154C30.6093 29.1656 29.0942 28.1688 25.6863 28.1688C24.7724 28.1688 22.6713 27.9884 21.1406 28.4765C19.5177 28.9941 18.4893 30.1935 18.4893 30.6308Z" fill="#EEC9A4"/>
<path d="M35.6264 18.941C34.8104 21.1612 31.4254 23.6986 26.2433 23.6986C21.3478 23.3815 16.8604 21.5686 16.8604 18.941C16.8604 16.4989 20.3842 15.0345 25.1395 14.3306C25.8717 14.2223 26.6159 14.2025 27.3494 14.302C31.2191 14.8274 35.6264 16.5457 35.6264 18.941Z" fill="#FDF8F4"/>
<path d="M26.2465 23.0645C30.978 23.0645 34.8136 21.2184 34.8136 18.9412C34.8136 16.6639 30.978 14.8179 26.2465 14.8179C21.5151 14.8179 17.6794 16.6639 17.6794 18.9412C17.6794 21.2184 21.5151 23.0645 26.2465 23.0645Z" fill="#EEC9A4"/>
<path d="M34.8134 18.9414C34.8134 20.8683 30.0765 22.7475 26.2464 22.7475C22.4161 22.7475 17.6792 20.8683 17.6792 18.9414C17.6792 17.0145 22.4161 15.1353 26.2464 15.1353C30.0765 15.1353 34.8134 17.0145 34.8134 18.9414Z" fill="#FDF8F4"/>
<path d="M31.1381 17.0382C32.362 16.721 35.2177 21.4791 27.0587 21.7963C26.0551 21.7963 22.8211 20.9268 21.7552 20.5276C20.1889 19.941 20.1233 19.037 20.1233 18.3074C20.1233 17.0812 22.9483 16.4043 25.4268 16.4043C27.9052 16.4043 30.3223 16.4048 31.1381 17.0382Z" fill="#FDF8F4"/>
<path d="M33.1793 19.2124C33.1793 19.6498 31.6326 20.7416 29.7706 21.0589C28.0149 21.3581 25.9609 20.9005 25.2257 20.7511C23.3431 20.7511 20.3016 19.8277 21.0596 18.5969C21.0596 17.7471 22.5744 16.7504 25.9824 16.7504C26.8962 16.7504 28.9974 16.5699 30.5282 17.058C32.1509 17.5755 33.1793 18.7751 33.1793 19.2124Z" fill="#EEC9A4"/>
<path d="M32.2593 19.3694C31.8658 20.2768 28.9391 20.6657 26.439 20.6657C24.0772 20.536 21.9124 19.7951 21.9124 18.7212C21.9124 17.7825 23.4159 17.1973 25.5033 16.8917C26.1241 16.8007 26.7539 16.7935 27.3796 16.8404C28.5102 16.9252 30.0969 17.0856 30.9659 17.4249C32.2776 17.9369 32.2593 18.7997 32.2593 19.3694Z" fill="#FDF8F4"/>
<path d="M12.5274 17.0426C14.685 18.0018 16.6606 20.6475 15.625 23.9216C14.3151 26.9512 11.5234 29.424 8.77704 28.8989C6.50633 28.4648 5.60167 26.4232 5.58075 23.7636C5.57169 22.6139 5.89245 21.4347 6.60744 20.4313C8.042 18.4182 10.3502 16.6263 12.5274 17.0426Z" fill="#FDF8F4"/>
<path d="M14.9602 23.792C15.9058 20.8027 14.7429 18.0104 12.3627 17.5553C9.98247 17.1002 7.28639 19.1546 6.3408 22.1439C5.39521 25.1333 6.55819 27.9256 8.93838 28.3807C11.3186 28.8358 14.0146 26.7814 14.9602 23.792Z" fill="#EEC9A4"/>
<path d="M12.3644 17.555C14.3784 17.9401 15.3959 21.3084 14.6305 23.7284C13.865 26.1483 10.9541 28.7655 8.94013 28.3804C6.92612 27.9954 5.90858 24.627 6.67405 22.2071C7.43955 19.7871 10.3504 17.1699 12.3644 17.555Z" fill="#FDF8F4"/>
<path d="M9.64217 19.4959C9.55525 18.6592 15.0992 17.8059 13.8001 23.0242C13.5995 23.6583 12.0444 25.5277 11.4141 26.1214C10.4879 26.9938 9.53007 26.8545 8.76741 26.7087C7.48577 26.4636 7.3429 24.5435 7.8382 22.9776C8.33351 21.4118 8.81706 19.8848 9.64217 19.4959Z" fill="#FDF8F4"/>
<path d="M12.3268 18.6443C12.784 18.7317 13.616 19.9271 13.5756 21.167C13.5374 22.3361 12.6486 23.5423 12.3456 23.977C11.9693 25.1664 10.3963 26.9035 9.26135 26.1787C8.37311 26.0089 7.63415 24.8525 8.31523 22.6994C8.49787 22.122 8.72909 20.7584 9.54524 19.8888C10.4104 18.967 11.8698 18.5569 12.3268 18.6443Z" fill="#EEC9A4"/>
<path d="M8.41867 27.3051C10.0486 25.8463 13.7709 24.8544 17.7001 26.2811C21.2676 27.8694 23.8442 30.4795 22.6475 32.4719C21.5661 34.272 18.3801 34.4545 14.596 33.7505C13.7722 33.5973 12.9904 33.3389 12.3081 32.9488C9.71746 31.4678 7.36467 29.0598 8.41867 27.3051Z" fill="#FDF8F4"/>
<path d="M17.4095 26.763C13.822 25.4604 10.0729 25.8041 9.03569 27.5307C7.99847 29.2574 10.0659 31.7131 13.6534 33.0158C17.2409 34.3185 20.99 33.9748 22.0272 32.2481C23.0644 30.5215 20.997 28.0657 17.4095 26.763Z" fill="#EEC9A4"/>
<path d="M9.03849 27.5312C9.91613 26.0702 14.3637 25.9495 17.2678 27.004C20.172 28.0585 22.9077 30.7875 22.03 32.2486C21.1524 33.7096 16.7049 33.8303 13.8007 32.7758C10.8965 31.7212 8.16084 28.9921 9.03849 27.5312Z" fill="#FDF8F4"/>
<path d="M10.9542 29.9835C9.88179 29.887 9.88373 25.4931 16.2147 27.499C16.9756 27.7753 19.0317 29.3251 19.6579 29.9212C20.5784 30.7971 20.2164 31.5005 19.8841 32.0538C19.3255 32.9837 16.8752 32.719 14.996 32.0366C13.1168 31.3543 11.2844 30.6885 10.9542 29.9835Z" fill="#FDF8F4"/>
<path d="M10.3989 27.7706C10.5982 27.439 12.2682 27.037 13.8246 27.309C15.2922 27.5656 16.641 28.478 17.1305 28.7936C18.5579 29.3119 20.4435 30.8497 19.3082 31.5741C18.9211 32.2186 17.3185 32.557 14.7345 31.6188C14.0417 31.3672 12.3662 30.9256 11.4279 30.134C10.4332 29.2949 10.1998 28.1021 10.3989 27.7706Z" fill="#EEC9A4"/>
<path d="M29.6762 33.5913C28.3344 31.9648 28.1579 28.9085 31.0248 26.3787C33.9891 24.1644 37.9359 22.9766 40.058 24.4303C41.9083 25.6978 41.3476 28.0034 39.5684 30.522C39.0322 31.2808 38.3132 31.9617 37.409 32.4666C34.8772 33.8803 31.4666 34.8177 29.6762 33.5913Z" fill="#FDF8F4"/>
<path d="M31.5363 26.7303C28.9187 29.0401 28.2876 31.9338 30.1267 33.1936C31.9658 34.4535 35.5787 33.6023 38.1963 31.2926C40.8138 28.9828 41.4449 26.0891 39.6058 24.8292C37.7667 23.5694 34.1539 24.4205 31.5363 26.7303Z" fill="#EEC9A4"/>
<path d="M30.1288 33.1961C28.5726 32.13 29.6755 28.778 31.7946 26.9081C33.9136 25.0383 38.0517 23.7656 39.608 24.8316C41.1641 25.8976 40.0612 29.2496 37.9422 31.1194C35.8231 32.9892 31.6851 34.262 30.1288 33.1961Z" fill="#FDF8F4"/>
<path d="M33.6964 32.4541C33.2756 33.227 27.8531 31.9888 32.1107 27.8302C32.6659 27.3403 35.1574 26.2426 36.0693 25.9431C37.4097 25.503 38.1759 25.9711 38.7653 26.3748C39.7554 27.0532 38.7393 28.8068 37.3682 30.0166C35.9969 31.2265 34.6594 32.4063 33.6964 32.4541Z" fill="#FDF8F4"/>
<path d="M30.8079 32.2475C30.4548 32.0055 30.4287 30.6465 31.2026 29.5619C31.9323 28.5392 33.4381 27.7897 33.9656 27.5134C35.007 26.5944 37.4354 25.6205 38.0102 26.6714C38.6964 27.1415 38.6632 28.4325 36.7778 30.096C36.2724 30.5422 35.2556 31.6678 34.0146 32.1451C32.699 32.651 31.1611 32.4895 30.8079 32.2475Z" fill="#EEC9A4"/>
<path d="M38.2988 29.5938C35.9138 29.0502 33.202 26.8334 33.2314 23.4619C33.6008 20.2787 35.5776 17.3694 38.4057 17.3843C40.7198 17.3966 42.2028 19.1816 43.0228 21.7223C43.3991 22.8881 43.4402 24.1566 43.016 25.3086C42.2097 27.4974 40.514 29.6055 38.2988 29.5938Z" fill="#FDF8F4"/>
<path d="M33.9116 23.4658C33.8846 26.5442 35.8497 29.0502 38.3008 29.0632C40.7519 29.0761 42.7607 26.5911 42.7876 23.5128C42.8146 20.4345 40.8494 17.9285 38.3984 17.9155C35.9473 17.9025 33.9385 20.3875 33.9116 23.4658Z" fill="#EEC9A4"/>
<path d="M38.3016 29.0613C36.2276 29.0503 34.232 25.9578 34.2538 23.4658C34.2757 20.9738 36.3252 17.9026 38.3992 17.9136C40.4733 17.9246 42.4689 21.0171 42.447 23.5091C42.4253 26.0011 40.3756 29.0722 38.3016 29.0613Z" fill="#FDF8F4"/>
<path d="M40.3759 26.6846C40.7104 27.4827 35.5728 29.3134 35.2778 24.0033C35.2837 23.3503 36.2379 21.2512 36.6736 20.56C37.314 19.5443 38.2872 19.5068 39.0727 19.511C40.3925 19.518 41.1049 21.3598 41.0907 22.9723C41.0766 24.5848 41.0623 26.1574 40.3759 26.6846Z" fill="#FDF8F4"/>
<path d="M38.0168 27.9975C37.546 27.9951 36.3796 26.9825 36.0488 25.7693C35.7368 24.6252 36.2409 23.2915 36.4058 22.814C36.4165 21.5892 37.4278 19.6156 38.7482 20.1157C39.663 20.1205 40.727 21.1119 40.7076 23.3291C40.7025 23.9236 40.8848 25.2917 40.3507 26.2849C39.7843 27.3377 38.4874 28 38.0168 27.9975Z" fill="#EEC9A4"/>
<path d="M29.0375 26.7217C28.2215 28.9421 24.8365 31.4794 19.6544 31.4794C14.759 31.1623 10.2715 29.3493 10.2715 26.7217C10.2715 24.2796 13.7954 22.8152 18.5507 22.1114C19.2828 22.003 20.027 21.9832 20.7605 22.0828C24.6302 22.6081 29.0375 24.3264 29.0375 26.7217Z" fill="#FDF8F4"/>
<path d="M19.6577 30.8453C24.3891 30.8453 28.2247 28.9992 28.2247 26.7219C28.2247 24.4447 24.3891 22.5986 19.6577 22.5986C14.9262 22.5986 11.0906 24.4447 11.0906 26.7219C11.0906 28.9992 14.9262 30.8453 19.6577 30.8453Z" fill="#EEC9A4"/>
<path d="M28.2248 26.7221C28.2248 28.649 23.4878 30.5283 19.6577 30.5283C15.8274 30.5283 11.0906 28.649 11.0906 26.7221C11.0906 24.7953 15.8274 22.916 19.6577 22.916C23.4878 22.916 28.2248 24.7953 28.2248 26.7221Z" fill="#FDF8F4"/>
<path d="M24.5494 24.819C25.7733 24.5018 28.629 29.2598 20.47 29.5772C19.4664 29.5772 16.2324 28.7075 15.1665 28.3084C13.6001 27.7217 13.5347 26.8178 13.5347 26.0881C13.5347 24.8619 16.3597 24.1851 18.8381 24.1851C21.3165 24.1851 23.7336 24.1855 24.5494 24.819Z" fill="#FDF8F4"/>
<path d="M26.5905 26.9931C26.5905 27.4305 25.044 28.5223 23.1818 28.8396C21.4261 29.1388 19.3721 28.6811 18.6369 28.5319C16.7543 28.5319 13.7128 27.6085 14.4707 26.3776C14.4707 25.5278 15.9857 24.5312 19.3936 24.5312C20.3074 24.5312 22.4086 24.3506 23.9394 24.8388C25.5621 25.3563 26.5905 26.5558 26.5905 26.9931Z" fill="#EEC9A4"/>
<path d="M39.9534 23.9231C39.8185 26.2853 37.3181 29.7013 32.3608 31.2146C27.5856 32.341 22.7657 31.9173 22.0019 29.4038C21.2917 27.0677 24.237 24.6377 28.5814 22.5756C29.2503 22.258 29.9565 22.0217 30.6869 21.9028C34.5415 21.2752 39.257 21.6317 39.9534 23.9231Z" fill="#FDF8F4"/>
<path d="M32.1793 30.6084C36.7054 29.2265 39.8379 26.3403 39.1758 24.1619C38.5137 21.9835 34.3079 21.3378 29.7817 22.7196C25.2556 24.1015 22.1231 26.9876 22.7852 29.1661C23.4473 31.3445 27.6532 31.9902 32.1793 30.6084Z" fill="#EEC9A4"/>
<path d="M39.1757 24.1611C39.736 26.0043 35.7511 29.1854 32.0871 30.3042C28.423 31.4228 23.3455 31.0086 22.7852 29.1652C22.2249 27.3219 26.2099 24.1408 29.874 23.0222C33.5378 21.9035 38.6156 22.3178 39.1757 24.1611Z" fill="#FDF8F4"/>
<path d="M35.107 23.415C36.1855 22.7542 40.3006 26.4718 32.5878 29.1582C31.6278 29.4511 28.2813 29.5639 27.1456 29.4935C25.4768 29.3898 25.1513 28.5441 24.9391 27.8461C24.5827 26.6731 27.0883 25.2005 29.4591 24.4767C31.83 23.7529 34.1422 23.0474 35.107 23.415Z" fill="#FDF8F4"/>
<path d="M37.6911 24.8968C37.8181 25.3152 36.6561 26.8113 34.9671 27.6587C33.3744 28.4578 31.2766 28.6199 30.5299 28.6916C28.729 29.2415 25.551 29.2464 25.9181 27.8477C25.671 27.0348 26.8306 25.6389 30.0906 24.6436C30.9647 24.3767 32.9223 23.5903 34.5285 23.6102C36.2313 23.6313 37.5639 24.4785 37.6911 24.8968Z" fill="#EEC9A4"/>
<path d="M23.1909 21.432C23.1909 21.8688 23.3899 24.1781 22.3741 25.2202C21.6515 25.9616 19.8436 25.2202 18.9863 25.7461C16.9989 26.2575 14.3261 24.7914 13.4939 24.5362C11.363 24.5362 8.26827 23.6422 9.12617 21.5389C10.0306 20.3973 11.0696 19.3623 14.6984 18.3835C15.6267 18.1332 18.9863 17.6379 19.8436 18.9092C21.6804 19.7935 23.1909 20.6848 23.1909 21.432Z" fill="url(#paint2_linear_742_2760)"/>
<path d="M38.7789 28.2919C41.3327 26.3353 41.8204 22.6743 39.8683 20.1147C37.9162 17.5552 34.2635 17.0663 31.7097 19.0228C29.1559 20.9794 28.6682 24.6404 30.6203 27.1999C32.5724 29.7595 36.2251 30.2484 38.7789 28.2919Z" fill="url(#paint3_linear_742_2760)"/>
<path d="M37.9934 27.2625C39.9797 25.7408 40.3591 22.8933 38.8408 20.9025C37.3225 18.9117 34.4814 18.5315 32.4952 20.0532C30.5089 21.575 30.1295 24.4224 31.6478 26.4132C33.1661 28.404 36.0071 28.7842 37.9934 27.2625Z" fill="#FFFCE9"/>
<path d="M37.2076 26.2336C38.6264 25.1466 38.8974 23.1127 37.8129 21.6908C36.7284 20.2688 34.6991 19.9972 33.2803 21.0841C31.8616 22.1711 31.5906 24.205 32.6751 25.627C33.7596 27.049 35.7889 27.3206 37.2076 26.2336Z" fill="#FFECC7"/>
<path d="M34.8993 21.8133C37.453 19.8568 37.9408 16.1958 35.9887 13.6362C34.0366 11.0767 30.3839 10.5878 27.8301 12.5443C25.2763 14.5008 24.7885 18.1619 26.7406 20.7214C28.6927 23.281 32.3455 23.7699 34.8993 21.8133Z" fill="url(#paint4_linear_742_2760)"/>
<path d="M34.1138 20.7845C36.1001 19.2627 36.4794 16.4153 34.9611 14.4245C33.4428 12.4337 30.6018 12.0535 28.6155 13.5752C26.6292 15.0969 26.2499 17.9444 27.7682 19.9352C29.2865 21.926 32.1275 22.3062 34.1138 20.7845Z" fill="#FFFCE9"/>
<path d="M33.328 19.7556C34.7468 18.6686 35.0178 16.6347 33.9333 15.2127C32.8488 13.7907 30.8195 13.5192 29.4007 14.6061C27.9819 15.6931 27.7109 17.727 28.7954 19.1489C29.8799 20.5709 31.9092 20.8425 33.328 19.7556Z" fill="#FFECC7"/>
<path d="M33.4253 24.9264C33.632 25.3108 34.9003 27.249 34.4997 28.6494C34.2145 29.6456 32.2721 29.8528 31.7662 30.7234C30.2589 32.1185 27.2121 32.0991 26.3587 32.2702C24.4829 33.2834 21.3354 33.9681 21.095 31.7088C21.3507 30.2737 21.7753 28.8685 24.5063 26.2814C25.2049 25.6195 27.9278 23.5859 29.2846 24.2973C31.32 24.2023 33.0715 24.2685 33.4253 24.9264Z" fill="url(#paint5_linear_742_2760)"/>
<path d="M26.766 23.7222C26.8645 24.1476 27.5798 26.352 26.8257 27.5974C26.2892 28.4834 24.3608 28.1712 23.6445 28.878C21.8239 29.8268 18.8896 29.005 18.0213 28.9451C15.9457 29.4283 12.7294 29.2594 13.0902 27.0161C13.7134 25.6989 14.4918 24.4551 17.8055 22.6788C18.6532 22.2244 21.814 20.98 22.9361 22.0239C24.9249 22.4688 26.5973 22.9943 26.766 23.7222Z" fill="url(#paint6_linear_742_2760)"/>
<path fill-rule="evenodd" clip-rule="evenodd" d="M25.1475 16.7808C25.862 16.7808 26.4409 18.0093 26.4409 18.7252C27.1552 18.7252 28.3811 19.3056 28.3811 20.0215C28.3811 20.7375 27.1552 21.3179 26.4409 21.3179C26.4409 22.0338 25.862 23.2623 25.1475 23.2623C24.4332 23.2623 23.8543 22.0338 23.8543 21.3179C23.1398 21.3179 21.9141 20.7375 21.9141 20.0215C21.9141 19.3056 23.1398 18.7252 23.8543 18.7252C23.8543 18.0093 24.4332 16.7808 25.1475 16.7808Z" fill="#7BD91B"/>
<path fill-rule="evenodd" clip-rule="evenodd" d="M25.1471 17.4263C25.7185 17.4263 26.1817 18.4091 26.1817 18.9818C26.7533 18.982 27.7335 19.4472 27.7335 20.0199C27.7335 20.5926 26.7533 21.0568 26.1817 21.057C26.1812 21.6299 25.7181 22.6115 25.1471 22.6115C24.576 22.6115 24.113 21.6299 24.1124 21.057C24.1122 21.057 24.1126 21.057 24.1124 21.057C23.541 21.057 22.5601 20.5927 22.5601 20.0199C22.5601 19.4472 23.5406 18.9828 24.112 18.9828C24.112 18.4101 24.5757 17.4263 25.1471 17.4263Z" fill="#64AF1E"/>
<path fill-rule="evenodd" clip-rule="evenodd" d="M33.6431 23.5316C34.2878 23.2234 35.1449 22.1711 34.8375 21.5249C34.5303 20.8787 33.1749 20.8833 32.53 21.1912C32.2226 20.545 31.1727 19.6858 30.5278 19.9938C29.8831 20.3018 29.8878 21.6605 30.195 22.3068C29.5502 22.6149 28.6924 23.6681 28.9997 24.3143C29.3071 24.9606 30.6627 24.9559 31.3076 24.6479C31.616 25.294 32.6653 26.1513 33.3097 25.8436C33.9542 25.5357 33.9499 24.1783 33.6431 23.5316Z" fill="#7BD91B"/>
<path fill-rule="evenodd" clip-rule="evenodd" d="M33.2976 23.4074C33.8135 23.1609 34.4995 22.319 34.2535 21.8019C34.0076 21.2849 32.9232 21.2886 32.4074 21.5351C32.4072 21.5351 32.4074 21.5351 32.4074 21.5351C32.1608 21.0182 31.3213 20.3317 30.8056 20.578C30.2898 20.8244 30.2936 21.9112 30.5393 22.4283C30.5391 22.4284 30.5393 22.4282 30.5393 22.4283C30.0233 22.6747 29.3371 23.517 29.5831 24.034C29.8288 24.551 30.9134 24.5473 31.4292 24.3008C31.6754 24.8178 32.5157 25.5042 33.0313 25.2579C33.5474 25.0114 33.5436 23.9244 33.2976 23.4074Z" fill="#64AF1E"/>
<path fill-rule="evenodd" clip-rule="evenodd" d="M30.4323 19.6209C31.0599 19.9631 30.9826 21.3196 30.6413 21.9485C31.2687 22.2907 32.0685 23.389 31.7272 24.0179C31.3857 24.6468 30.0324 24.5694 29.4048 24.2273C29.0635 24.8561 27.9685 25.6581 27.341 25.316C26.7136 24.9738 26.7907 23.6173 27.1322 22.9884C26.5046 22.6463 25.7049 21.5484 26.0462 20.9195C26.3877 20.2907 27.7411 20.368 28.3685 20.7102C28.3683 20.7104 28.3687 20.7099 28.3685 20.7102C28.71 20.0813 29.8049 19.2788 30.4323 19.6209ZM28.8869 22.4676C28.8867 22.4679 28.8871 22.4673 28.8869 22.4676V22.4676Z" fill="#7BD91B"/>
<path fill-rule="evenodd" clip-rule="evenodd" d="M30.122 20.189C30.6241 20.4628 30.5623 21.548 30.2892 22.0511C30.791 22.3248 31.4311 23.2035 31.158 23.7066C30.8849 24.2097 29.802 24.1478 29.3001 23.8741C29.027 24.3772 28.1513 25.0188 27.6492 24.7451C27.1473 24.4713 27.209 23.3861 27.4822 22.883C26.9804 22.6093 26.3403 21.73 26.6134 21.2269C26.8865 20.7238 27.9694 20.7857 28.4713 21.0594C28.4711 21.0594 28.4715 21.0595 28.4713 21.0594C28.7445 20.5563 29.6201 19.9153 30.122 20.189ZM28.8855 22.4662C28.8853 22.4666 28.8857 22.4659 28.8855 22.4662V22.4662Z" fill="#64AF1E"/>
<path d="M31.8083 18.3226C31.3984 18.4328 30.6885 18.6435 30.0605 17.7612" stroke="#6E3333" stroke-linecap="round"/>
<path d="M28.3796 15.9355L29.657 16.0163" stroke="#6E3333" stroke-linecap="round"/>
<path d="M33.325 17.3892L34.4112 18.0675" stroke="#6E3333" stroke-linecap="round"/>
<defs>
<linearGradient id="paint0_linear_742_2760" x1="24.4991" y1="10.2949" x2="24.4991" y2="42.0546" gradientUnits="userSpaceOnUse">
<stop offset="0.815132" stop-color="#727272"/>
<stop offset="1" stop-color="#333333"/>
</linearGradient>
<radialGradient id="paint1_radial_742_2760" cx="0" cy="0" r="1" gradientUnits="userSpaceOnUse" gradientTransform="translate(24.5002 24.5555) rotate(90) scale(11.6668 20.694)">
<stop offset="0.475" stop-color="#FFEFCB"/>
<stop offset="1" stop-color="#F4C04A"/>
</radialGradient>
<linearGradient id="paint2_linear_742_2760" x1="18.6887" y1="18.3276" x2="16.1119" y2="25.86" gradientUnits="userSpaceOnUse">
<stop offset="0.318777" stop-color="#D67653"/>
<stop offset="1" stop-color="#AF361A"/>
</linearGradient>
<linearGradient id="paint3_linear_742_2760" x1="31.7097" y1="19.0228" x2="38.7991" y2="28.2764" gradientUnits="userSpaceOnUse">
<stop stop-color="#FEFE75"/>
<stop offset="1" stop-color="#FFE180"/>
</linearGradient>
<linearGradient id="paint4_linear_742_2760" x1="27.8301" y1="12.5443" x2="34.9195" y2="21.7979" gradientUnits="userSpaceOnUse">
<stop stop-color="#FEFE75"/>
<stop offset="1" stop-color="#FFE180"/>
</linearGradient>
<linearGradient id="paint5_linear_742_2760" x1="27.9925" y1="24.3346" x2="29.3066" y2="32.1877" gradientUnits="userSpaceOnUse">
<stop offset="0.318777" stop-color="#D67653"/>
<stop offset="1" stop-color="#AF361A"/>
</linearGradient>
<linearGradient id="paint6_linear_742_2760" x1="21.6798" y1="21.7194" x2="20.8777" y2="29.6415" gradientUnits="userSpaceOnUse">
<stop offset="0.318777" stop-color="#D67653"/>
<stop offset="1" stop-color="#AF361A"/>
</linearGradient>
</defs>
</svg>
