<svg width="37" height="26" viewBox="0 0 37 26" fill="currentColor" xmlns="http://www.w3.org/2000/svg">
<g filter="url(#filter0_d_567_3817)">
<path d="M19.287 25.2053C18.8867 25.7163 18.1131 25.7163 17.7128 25.2053L13.952 20.4058C13.4377 19.7495 13.9053 18.7891 14.7392 18.7891H22.2606C23.0945 18.7891 23.5621 19.7495 23.0478 20.4058L19.287 25.2053Z" fill="currentColor"/>
</g>
<rect width="37" height="21" rx="4" fill="currentColor"/>
<path d="M8.42 9.9H18.044V10.872H13.88V11.652H16.856V14.172H10.844V14.904H17.156V15.876H9.56V13.272H15.56V12.612H9.524V11.652H12.56V10.872H8.42V9.9ZM12.56 5.256H13.892V6.156H17.108V7.128H14C14.264 7.884 15.5 8.472 17.612 8.556L17.24 9.552C15.32 9.42 13.904 8.916 13.232 8.064C12.56 8.916 11.132 9.42 9.212 9.552L8.84 8.556C10.952 8.472 12.188 7.884 12.452 7.128H9.356V6.156H12.56V5.256ZM19.0283 5.748H20.3363V7.116H22.7843V5.748H24.0803V10.404H19.0283V5.748ZM20.3363 8.112V9.372H22.7843V8.112H20.3363ZM25.7003 5.292H27.0203V7.44H28.4843V8.52H27.0203V10.74H25.7003V5.292ZM20.0723 11.196H27.0203V13.98H21.4043V14.844H27.3563V15.876H20.0963V13.02H25.7243V12.216H20.0723V11.196Z" fill="white"/>
<defs>
<filter id="filter0_d_567_3817" x="11.7373" y="18.7891" width="17.5254" height="14.7996" filterUnits="userSpaceOnUse" color-interpolation-filters="sRGB">
<feFlood flood-opacity="0" result="BackgroundImageFix"/>
<feOffset dx="2" dy="4"/>
<feGaussianBlur stdDeviation="2"/>
<feComposite in2="hardAlpha" operator="out"/>
<feColorMatrix type="matrix" values="0 0 0 0 1 0 0 0 0 0.458824 0 0 0 0 0.0705882 0 0 0 0.2 0"/>
<feBlend mode="normal" in2="BackgroundImageFix" result="effect1_dropShadow_567_3817"/>
<feBlend mode="normal" in="SourceGraphic" in2="effect1_dropShadow_567_3817" result="shape"/>
</filter>
</defs>
</svg>
