<svg width="37" height="26" viewBox="0 0 37 26" fill="currentColor" xmlns="http://www.w3.org/2000/svg">
<g filter="url(#filter0_d_567_3817)">
<path d="M19.287 25.2053C18.8867 25.7163 18.1131 25.7163 17.7128 25.2053L13.952 20.4058C13.4377 19.7495 13.9053 18.7891 14.7392 18.7891H22.2606C23.0945 18.7891 23.5621 19.7495 23.0478 20.4058L19.287 25.2053Z" fill="currentColor"/>
</g>
<rect width="37" height="21" rx="4" fill="currentColor"/>
<path d="M9.572 6.06H16.916V7.116H10.892V10.128H17.012V11.184H13.88V13.62H18.08V14.7H8.408V13.62H12.572V11.184H9.572V6.06ZM18.9563 6.468H21.1643V5.244H22.4723V6.468H24.6803V7.524H22.4723V7.584C22.4723 8.772 23.3243 9.96 24.9803 10.416L24.3683 11.448C23.1683 11.1 22.3163 10.368 21.8363 9.444C21.3683 10.452 20.4923 11.244 19.2443 11.628L18.6203 10.608C20.2883 10.116 21.1643 8.88 21.1643 7.584V7.524H18.9563V6.468ZM25.6883 5.292H27.0083V7.992H28.4963V9.084H27.0083V11.808H25.6883V5.292ZM19.9643 12.3H27.0083V15.972H25.6883V13.368H19.9643V12.3Z" fill="white"/>
<defs>
<filter id="filter0_d_567_3817" x="11.7373" y="18.7891" width="17.5254" height="14.7996" filterUnits="userSpaceOnUse" color-interpolation-filters="sRGB">
<feFlood flood-opacity="0" result="BackgroundImageFix"/>
<feOffset dx="2" dy="4"/>
<feGaussianBlur stdDeviation="2"/>
<feComposite in2="hardAlpha" operator="out"/>
<feColorMatrix type="matrix" values="0 0 0 0 1 0 0 0 0 0.458824 0 0 0 0 0.0705882 0 0 0 0.2 0"/>
<feBlend mode="normal" in2="BackgroundImageFix" result="effect1_dropShadow_567_3817"/>
<feBlend mode="normal" in="SourceGraphic" in2="effect1_dropShadow_567_3817" result="shape"/>
</filter>
</defs>
</svg>