<svg width="48" height="48" viewBox="0 0 48 48" fill="none" xmlns="http://www.w3.org/2000/svg">
<g clip-path="url(#clip0_742_2758)">
<path fill-rule="evenodd" clip-rule="evenodd" d="M4 37.8048V29.0655C4 23.4344 12.9543 18.8696 24 18.8696C35.0457 18.8696 44 23.4344 44 29.0655V37.8048C44 43.4359 35.0457 48.0007 24 48.0007C12.9543 48.0007 4 43.4359 4 37.8048Z" fill="#FFCD5E"/>
<path d="M24 39.7243C35.0457 39.7243 44 34.9075 44 28.9657C44 23.0238 35.0457 18.207 24 18.207C12.9543 18.207 4 23.0238 4 28.9657C4 34.9075 12.9543 39.7243 24 39.7243Z" fill="#FFDF88"/>
<path d="M24.0001 38.0691C34.1253 38.0691 42.3334 33.6228 42.3334 28.1381C42.3334 22.6533 34.1253 18.207 24.0001 18.207C13.8749 18.207 5.66675 22.6533 5.66675 28.1381C5.66675 33.6228 13.8749 38.0691 24.0001 38.0691Z" fill="#EEA614"/>
<path fill-rule="evenodd" clip-rule="evenodd" d="M7.33325 27.6802C7.33325 27.6813 7.33325 27.6825 7.33325 27.6836C7.33325 32.4699 14.7952 36.35 23.9999 36.35C33.2046 36.35 40.6666 32.4699 40.6666 27.6836C40.6666 27.6825 40.6666 27.6813 40.6666 27.6802V20.2529C40.6666 20.2526 40.6666 20.2532 40.6666 20.2529C40.6654 15.4671 33.2039 11.5864 23.9999 11.5864C14.7959 11.5864 7.3344 15.4659 7.33325 20.2517C7.33325 20.2514 7.33325 20.2521 7.33325 20.2517V27.6802Z" fill="#FFCD5E"/>
<path d="M23.9999 29.7933C33.2047 29.7933 40.6666 25.7176 40.6666 20.6899C40.6666 15.6622 33.2047 11.5864 23.9999 11.5864C14.7952 11.5864 7.33325 15.6622 7.33325 20.6899C7.33325 25.7176 14.7952 29.7933 23.9999 29.7933Z" fill="#FFDF88"/>
<path d="M24 28.1378C32.2843 28.1378 39 24.8031 39 20.6895C39 16.5759 32.2843 13.2412 24 13.2412C15.7157 13.2412 9 16.5759 9 20.6895C9 24.8031 15.7157 28.1378 24 28.1378Z" fill="#EDB55F"/>
<path d="M39 21.6207C39 24.4203 32.2843 28.138 24 28.138C15.7157 28.138 9 24.4203 9 21.6207C9 18.8212 15.7157 16.5518 24 16.5518C32.2843 16.5518 39 18.8212 39 21.6207Z" fill="#D8953E"/>
<path fill-rule="evenodd" clip-rule="evenodd" d="M23.4614 0.056421C23.8786 -0.17921 24.3424 0.374736 24.5928 0.767455C25.3634 1.977 26.5259 4.66012 24.6698 7.57304C24.1404 8.40371 23.9146 10.3358 24.5928 13.5252C24.7284 14.1631 25.0806 14.8532 25.0806 14.8532C24.6759 15.1072 23.9146 14.1631 23.9146 14.1631C21.5304 10.7959 22.3338 8.01536 23.1594 6.71974C24.5551 4.52955 24.0456 1.68462 23.4614 0.767874C23.2816 0.485593 23.1448 0.363276 23.2369 0.229299C23.2731 0.176883 23.3441 0.122684 23.4614 0.056421Z" fill="white" fill-opacity="0.58"/>
<path fill-rule="evenodd" clip-rule="evenodd" d="M28.4614 3.34189C28.8786 3.21098 29.3424 3.51873 29.5928 3.7369C30.3634 4.40888 31.5259 5.8995 29.6698 7.51779C29.1404 7.97927 28.9146 9.05265 29.5928 10.8246C29.7284 11.179 30.0806 11.5623 30.0806 11.5623C29.6759 11.7034 28.9146 11.179 28.9146 11.179C26.5304 9.30824 27.3338 7.76352 28.1594 7.04374C29.5551 5.82697 29.0456 4.24644 28.4614 3.73715C28.2816 3.58032 28.1448 3.51236 28.2369 3.43793C28.2731 3.40881 28.3441 3.3787 28.4614 3.34189Z" fill="white" fill-opacity="0.58"/>
<path fill-rule="evenodd" clip-rule="evenodd" d="M20.1282 3.34189C20.5453 3.21098 21.0092 3.51873 21.2595 3.7369C22.0302 4.40888 23.1927 5.8995 21.3365 7.51779C20.8072 7.97927 20.5813 9.05265 21.2595 10.8246C21.3952 11.179 21.7473 11.5623 21.7473 11.5623C21.3427 11.7034 20.5813 11.179 20.5813 11.179C18.1972 9.30824 19.0005 7.76352 19.8261 7.04374C21.2218 5.82697 20.7123 4.24644 20.1282 3.73715C19.9483 3.58032 19.8116 3.51236 19.9037 3.43793C19.9398 3.40881 20.0109 3.3787 20.1282 3.34189Z" fill="white" fill-opacity="0.58"/>
<path fill-rule="evenodd" clip-rule="evenodd" d="M33.5012 12.1939C32.9362 11.3839 31.7306 11.3839 31.1656 12.1939L30.7354 12.8104C30.5204 13.1185 30.2037 13.3385 29.8527 13.4761C27.3994 14.4379 25.6667 16.7062 25.6667 18.7957C25.6667 21.538 28.6516 23.7612 32.3334 23.7612C36.0152 23.7612 39.0001 21.538 39.0001 18.7957C39.0001 16.7062 37.2674 14.4379 34.8141 13.4761C34.4631 13.3385 34.1464 13.1185 33.9314 12.8104L33.5012 12.1939Z" fill="url(#paint0_linear_742_2758)"/>
<path d="M33.2838 18.3232C32.9142 18.5795 32.2813 19.0424 31.3362 18.3949" stroke="#6E3333" stroke-linecap="round"/>
<path d="M29 17.1917L30.3047 16.8135" stroke="#6E3333" stroke-linecap="round"/>
<path d="M34.4622 16.8555L35.7915 17.137" stroke="#6E3333" stroke-linecap="round"/>
<path fill-rule="evenodd" clip-rule="evenodd" d="M33.1208 15.341C33.1863 15.2974 33.1345 15.2048 33.0556 15.2033C32.793 15.1981 32.537 15.0699 32.3795 14.8369C32.222 14.6038 32.1996 14.3199 32.2945 14.0766C32.3225 14.0047 32.2566 13.9236 32.1921 13.9666C31.81 14.2212 31.708 14.7353 31.9645 15.1149C32.221 15.4944 32.7386 15.5957 33.1208 15.341Z" fill="#F1E0D8"/>
<path fill-rule="evenodd" clip-rule="evenodd" d="M32.8021 13.6433C32.8461 13.5791 32.9383 13.6305 32.9393 13.7082C32.9426 13.9692 33.07 14.2245 33.3038 14.3825C33.5376 14.5406 33.8235 14.5645 34.0691 14.4719C34.1421 14.4444 34.224 14.5105 34.18 14.5746C33.921 14.9524 33.4026 15.0503 33.0221 14.7931C32.6418 14.5359 32.5433 14.0211 32.8021 13.6433Z" fill="#F1E0D8"/>
<path fill-rule="evenodd" clip-rule="evenodd" d="M32.081 13.5336C32.1527 13.5688 32.1128 13.6684 32.034 13.6806C31.775 13.7205 31.5388 13.8807 31.4138 14.1318C31.2888 14.3829 31.304 14.6665 31.4293 14.8951C31.4665 14.9627 31.4118 15.0515 31.3423 15.0174C30.9298 14.8148 30.7607 14.3185 30.9647 13.9088C31.1687 13.499 31.6685 13.3311 32.081 13.5336Z" fill="#F1E0D8"/>
<path d="M28.1666 19.1269C28.6268 19.1269 28.9999 18.8305 28.9999 18.4648C28.9999 18.0992 28.6268 17.8027 28.1666 17.8027C27.7063 17.8027 27.3333 18.0992 27.3333 18.4648C27.3333 18.8305 27.7063 19.1269 28.1666 19.1269Z" fill="url(#paint1_linear_742_2758)"/>
<path d="M36.5001 19.1269C36.9603 19.1269 37.3334 18.8305 37.3334 18.4648C37.3334 18.0992 36.9603 17.8027 36.5001 17.8027C36.0398 17.8027 35.6667 18.0992 35.6667 18.4648C35.6667 18.8305 36.0398 19.1269 36.5001 19.1269Z" fill="url(#paint2_linear_742_2758)"/>
<path fill-rule="evenodd" clip-rule="evenodd" d="M16.8345 12.1939C16.2695 11.3839 15.0638 11.3839 14.4988 12.1939L14.0687 12.8104C13.8537 13.1185 13.5371 13.3385 13.186 13.4761C10.7326 14.4379 9 16.7062 9 18.7957C9 21.538 11.9848 23.7612 15.6667 23.7612C19.3486 23.7612 22.3333 21.538 22.3333 18.7957C22.3333 16.7062 20.6007 14.4379 18.1473 13.4761C17.7963 13.3385 17.4796 13.1185 17.2647 12.8104L16.8345 12.1939Z" fill="url(#paint3_linear_742_2758)"/>
<path d="M16.6171 18.3232C16.2474 18.5795 15.6146 19.0424 14.6694 18.3949" stroke="#6E3333" stroke-linecap="round"/>
<path d="M12.3333 17.1917L13.6379 16.8135" stroke="#6E3333" stroke-linecap="round"/>
<path d="M17.7957 16.8555L19.1249 17.137" stroke="#6E3333" stroke-linecap="round"/>
<path fill-rule="evenodd" clip-rule="evenodd" d="M16.454 15.341C16.5195 15.2974 16.4677 15.2048 16.3889 15.2033C16.1262 15.1981 15.8702 15.0699 15.7127 14.8369C15.5552 14.6038 15.5329 14.3199 15.6276 14.0766C15.6556 14.0047 15.5898 13.9236 15.5254 13.9666C15.1432 14.2212 15.0412 14.7353 15.2977 15.1149C15.5541 15.4944 16.0718 15.5957 16.454 15.341Z" fill="#F1E0D8"/>
<path fill-rule="evenodd" clip-rule="evenodd" d="M16.1355 13.6433C16.1795 13.5791 16.2716 13.6305 16.2726 13.7082C16.276 13.9692 16.4033 14.2245 16.6371 14.3825C16.8709 14.5406 17.1567 14.5645 17.4025 14.4719C17.4754 14.4444 17.5572 14.5105 17.5133 14.5746C17.2543 14.9524 16.736 15.0503 16.3555 14.7931C15.975 14.5359 15.8765 14.0211 16.1355 13.6433Z" fill="#F1E0D8"/>
<path fill-rule="evenodd" clip-rule="evenodd" d="M15.4143 13.5336C15.4858 13.5688 15.4461 13.6684 15.3672 13.6806C15.1082 13.7205 14.8721 13.8807 14.7471 14.1318C14.6221 14.3829 14.6372 14.6665 14.7626 14.8951C14.7997 14.9627 14.7451 15.0515 14.6756 15.0174C14.2631 14.8148 14.0939 14.3185 14.2979 13.9088C14.5019 13.499 15.0017 13.3311 15.4143 13.5336Z" fill="#F1E0D8"/>
<path d="M11.5001 19.1269C11.9603 19.1269 12.3334 18.8305 12.3334 18.4648C12.3334 18.0992 11.9603 17.8027 11.5001 17.8027C11.0398 17.8027 10.6667 18.0992 10.6667 18.4648C10.6667 18.8305 11.0398 19.1269 11.5001 19.1269Z" fill="url(#paint4_linear_742_2758)"/>
<path d="M19.8333 19.1269C20.2936 19.1269 20.6667 18.8305 20.6667 18.4648C20.6667 18.0992 20.2936 17.8027 19.8333 17.8027C19.3731 17.8027 19 18.0992 19 18.4648C19 18.8305 19.3731 19.1269 19.8333 19.1269Z" fill="url(#paint5_linear_742_2758)"/>
<path fill-rule="evenodd" clip-rule="evenodd" d="M25.1678 16.5708C24.6028 15.7609 23.3971 15.7609 22.8321 16.5708L22.4019 17.1873C22.1869 17.4955 21.8703 17.7155 21.5193 17.853C19.0658 18.8149 17.3333 21.0833 17.3333 23.1726C17.3333 25.9151 20.318 28.1381 23.9999 28.1381C27.6818 28.1381 30.6666 25.9151 30.6666 23.1726C30.6666 21.0833 28.9339 18.8149 26.4806 17.853C26.1296 17.7155 25.8129 17.4955 25.5979 17.1873L25.1678 16.5708Z" fill="url(#paint6_linear_742_2758)"/>
<path d="M24.9506 22.7002C24.5809 22.9564 23.9481 23.4195 23.0029 22.7719" stroke="#6E3333" stroke-linecap="round"/>
<path d="M20.6667 21.5691L21.9714 21.1909" stroke="#6E3333" stroke-linecap="round"/>
<path d="M26.1289 21.2329L27.4582 21.5145" stroke="#6E3333" stroke-linecap="round"/>
<path fill-rule="evenodd" clip-rule="evenodd" d="M24.7873 19.7184C24.8528 19.6749 24.801 19.5824 24.7221 19.5807C24.4595 19.5756 24.2035 19.4475 24.046 19.2144C23.8885 18.9812 23.8661 18.6973 23.961 18.454C23.989 18.3822 23.9231 18.3011 23.8586 18.344C23.4765 18.5987 23.3745 19.1128 23.631 19.4923C23.8875 19.8718 24.4051 19.9731 24.7873 19.7184Z" fill="#F1E0D8"/>
<path fill-rule="evenodd" clip-rule="evenodd" d="M24.4689 18.0207C24.5129 17.9566 24.6051 18.0079 24.6061 18.0857C24.6094 18.3467 24.7367 18.602 24.9706 18.76C25.2044 18.9179 25.4902 18.9419 25.7359 18.8494C25.8089 18.8218 25.8907 18.888 25.8467 18.952C25.5877 19.3299 25.0694 19.4277 24.6889 19.1705C24.3086 18.9133 24.2101 18.3985 24.4689 18.0207Z" fill="#F1E0D8"/>
<path fill-rule="evenodd" clip-rule="evenodd" d="M23.7478 17.9111C23.8194 17.9462 23.7796 18.0458 23.7008 18.0581C23.4418 18.098 23.2056 18.2582 23.0806 18.5093C22.9556 18.7604 22.9708 19.0439 23.0961 19.2725C23.1333 19.3402 23.0786 19.4289 23.0091 19.3948C22.5966 19.1924 22.4274 18.696 22.6314 18.2862C22.8354 17.8765 23.3353 17.7085 23.7478 17.9111Z" fill="#F1E0D8"/>
<path d="M19.8333 23.5043C20.2936 23.5043 20.6667 23.2079 20.6667 22.8422C20.6667 22.4766 20.2936 22.1802 19.8333 22.1802C19.3731 22.1802 19 22.4766 19 22.8422C19 23.2079 19.3731 23.5043 19.8333 23.5043Z" fill="url(#paint7_linear_742_2758)"/>
<path d="M28.1666 23.5043C28.6268 23.5043 28.9999 23.2079 28.9999 22.8422C28.9999 22.4766 28.6268 22.1802 28.1666 22.1802C27.7063 22.1802 27.3333 22.4766 27.3333 22.8422C27.3333 23.2079 27.7063 23.5043 28.1666 23.5043Z" fill="url(#paint8_linear_742_2758)"/>
</g>
<defs>
<linearGradient id="paint0_linear_742_2758" x1="32.3334" y1="11.5864" x2="32.3334" y2="23.7612" gradientUnits="userSpaceOnUse">
<stop offset="0.443412" stop-color="#FBF7EC"/>
<stop offset="0.834252" stop-color="#F2E4D7"/>
<stop offset="1" stop-color="#F2E4D7"/>
</linearGradient>
<linearGradient id="paint1_linear_742_2758" x1="28.1666" y1="17.8027" x2="28.1666" y2="19.1269" gradientUnits="userSpaceOnUse">
<stop stop-color="#FCBAAA"/>
<stop offset="1" stop-color="#FFB399"/>
</linearGradient>
<linearGradient id="paint2_linear_742_2758" x1="36.5001" y1="17.8027" x2="36.5001" y2="19.1269" gradientUnits="userSpaceOnUse">
<stop stop-color="#FCBAAA"/>
<stop offset="1" stop-color="#FFB399"/>
</linearGradient>
<linearGradient id="paint3_linear_742_2758" x1="15.6667" y1="11.5864" x2="15.6667" y2="23.7612" gradientUnits="userSpaceOnUse">
<stop offset="0.443412" stop-color="#FBF7EC"/>
<stop offset="0.834252" stop-color="#F2E4D7"/>
<stop offset="1" stop-color="#F2E4D7"/>
</linearGradient>
<linearGradient id="paint4_linear_742_2758" x1="11.5001" y1="17.8027" x2="11.5001" y2="19.1269" gradientUnits="userSpaceOnUse">
<stop stop-color="#FCBAAA"/>
<stop offset="1" stop-color="#FFB399"/>
</linearGradient>
<linearGradient id="paint5_linear_742_2758" x1="19.8333" y1="17.8027" x2="19.8333" y2="19.1269" gradientUnits="userSpaceOnUse">
<stop stop-color="#FCBAAA"/>
<stop offset="1" stop-color="#FFB399"/>
</linearGradient>
<linearGradient id="paint6_linear_742_2758" x1="23.9999" y1="15.9634" x2="23.9999" y2="28.1381" gradientUnits="userSpaceOnUse">
<stop offset="0.443412" stop-color="#FBF7EC"/>
<stop offset="0.834252" stop-color="#F2E4D7"/>
<stop offset="1" stop-color="#F2E4D7"/>
</linearGradient>
<linearGradient id="paint7_linear_742_2758" x1="19.8333" y1="22.1802" x2="19.8333" y2="23.5043" gradientUnits="userSpaceOnUse">
<stop stop-color="#FCBAAA"/>
<stop offset="1" stop-color="#FFB399"/>
</linearGradient>
<linearGradient id="paint8_linear_742_2758" x1="28.1666" y1="22.1802" x2="28.1666" y2="23.5043" gradientUnits="userSpaceOnUse">
<stop stop-color="#FCBAAA"/>
<stop offset="1" stop-color="#FFB399"/>
</linearGradient>
<clipPath id="clip0_742_2758">
<rect width="40" height="48" fill="white" transform="translate(4)"/>
</clipPath>
</defs>
</svg>
