<svg width="64" height="64" viewBox="0 0 64 64" fill="none" xmlns="http://www.w3.org/2000/svg">
<circle opacity="0.7" cx="32" cy="32" r="31" transform="rotate(-180 32 32)" fill="#FFF1E7" stroke="#FFD6B8" stroke-width="2"/>
<g filter="url(#filter0_d_794_8482)">
<circle cx="32" cy="32" r="16" transform="rotate(-180 32 32)" fill="#FF7512"/>
</g>
<path d="M24.0307 23.2773C24.1911 22.8406 24.8089 22.8406 24.9693 23.2773L25.3607 24.3424C25.4113 24.4802 25.5198 24.5887 25.6576 24.6393L26.7227 25.0307C27.1594 25.1911 27.1594 25.8089 26.7227 25.9693L25.6576 26.3607C25.5198 26.4113 25.4113 26.5198 25.3607 26.6576L24.9693 27.7227C24.8089 28.1594 24.1911 28.1594 24.0307 27.7227L23.6393 26.6576C23.5887 26.5198 23.4802 26.4113 23.3424 26.3607L22.2773 25.9693C21.8406 25.8089 21.8406 25.1911 22.2773 25.0307L23.3424 24.6393C23.4802 24.5887 23.5887 24.4802 23.6393 24.3424L24.0307 23.2773Z" fill="white"/>
<path d="M24.0307 37.2773C24.1911 36.8406 24.8089 36.8406 24.9693 37.2773L25.3607 38.3424C25.4113 38.4802 25.5198 38.5887 25.6576 38.6393L26.7227 39.0307C27.1594 39.1911 27.1594 39.8089 26.7227 39.9693L25.6576 40.3607C25.5198 40.4113 25.4113 40.5198 25.3607 40.6576L24.9693 41.7227C24.8089 42.1594 24.1911 42.1594 24.0307 41.7227L23.6393 40.6576C23.5887 40.5198 23.4802 40.4113 23.3424 40.3607L22.2773 39.9693C21.8406 39.8089 21.8406 39.1911 22.2773 39.0307L23.3424 38.6393C23.4802 38.5887 23.5887 38.4802 23.6393 38.3424L24.0307 37.2773Z" fill="white"/>
<path d="M33.5 23.4498L35.5036 28.9027C35.6048 29.1781 35.8219 29.3952 36.0973 29.4964L41.5502 31.5L36.0973 33.5036C35.8219 33.6048 35.6048 33.8219 35.5036 34.0973L33.5 39.5502L31.4964 34.0973C31.3952 33.8219 31.1781 33.6048 30.9027 33.5036L25.4498 31.5L30.9027 29.4964C31.1781 29.3952 31.3952 29.1781 31.4964 28.9027L33.5 23.4498Z" fill="white" stroke="white"/>
<defs>
<filter id="filter0_d_794_8482" x="12" y="13" width="40" height="40" filterUnits="userSpaceOnUse" color-interpolation-filters="sRGB">
<feFlood flood-opacity="0" result="BackgroundImageFix"/>
<feColorMatrix in="SourceAlpha" type="matrix" values="0 0 0 0 0 0 0 0 0 0 0 0 0 0 0 0 0 0 127 0" result="hardAlpha"/>
<feOffset dy="1"/>
<feGaussianBlur stdDeviation="2"/>
<feComposite in2="hardAlpha" operator="out"/>
<feColorMatrix type="matrix" values="0 0 0 0 1 0 0 0 0 0.729412 0 0 0 0 0.537255 0 0 0 1 0"/>
<feBlend mode="normal" in2="BackgroundImageFix" result="effect1_dropShadow_794_8482"/>
<feBlend mode="normal" in="SourceGraphic" in2="effect1_dropShadow_794_8482" result="shape"/>
</filter>
</defs>
</svg>
