<svg width="33" height="33" viewBox="0 0 33 33" fill="currentColor" xmlns="http://www.w3.org/2000/svg">
<circle cx="16.5" cy="16.5886" r="16" fill="currentColor"/>
<path d="M16.5001 18.1887L15.8439 18.9433C16.2202 19.2705 16.78 19.2705 17.1563 18.9433L16.5001 18.1887ZM13.1733 19.0789C13.7046 18.928 14.0129 18.375 13.8621 17.8438C13.7112 17.3125 13.1582 17.0041 12.6269 17.155L13.1733 19.0789ZM20.3733 17.155C19.842 17.0041 19.289 17.3125 19.1381 17.8438C18.9873 18.375 19.2956 18.928 19.8269 19.0789L20.3733 17.155ZM18.7001 13.3192C18.7001 13.6029 18.5848 13.9964 18.3206 14.4845C18.0637 14.9592 17.7086 15.4459 17.333 15.895C16.9602 16.3407 16.5846 16.7289 16.3008 17.0065C16.1595 17.1447 16.0426 17.254 15.9621 17.3277C15.9219 17.3646 15.8909 17.3924 15.8707 17.4104C15.8606 17.4195 15.8531 17.426 15.8486 17.43C15.8464 17.432 15.8448 17.4333 15.844 17.434C15.8436 17.4344 15.8434 17.4346 15.8434 17.4346C15.8434 17.4346 15.8434 17.4345 15.8435 17.4345C15.8436 17.4344 15.8437 17.4343 15.8437 17.4343C15.8438 17.4342 15.8439 17.4341 16.5001 18.1887C17.1563 18.9433 17.1564 18.9432 17.1566 18.9431C17.1567 18.943 17.1568 18.9428 17.157 18.9427C17.1573 18.9425 17.1576 18.9422 17.158 18.9419C17.1587 18.9412 17.1597 18.9404 17.1608 18.9394C17.1631 18.9374 17.1661 18.9347 17.1699 18.9314C17.1775 18.9247 17.1881 18.9154 17.2014 18.9035C17.2281 18.8797 17.2658 18.8458 17.3131 18.8024C17.4076 18.7158 17.5407 18.5914 17.6994 18.4362C18.0156 18.1268 18.44 17.6889 18.8672 17.1781C19.2916 16.6706 19.7365 16.0704 20.0796 15.4364C20.4154 14.8158 20.7001 14.0789 20.7001 13.3192H18.7001ZM16.5001 18.1887C17.1563 17.4341 17.1564 17.4342 17.1565 17.4343C17.1565 17.4343 17.1566 17.4344 17.1567 17.4345C17.1568 17.4345 17.1568 17.4346 17.1568 17.4346C17.1568 17.4346 17.1566 17.4344 17.1562 17.434C17.1554 17.4333 17.1538 17.432 17.1516 17.43C17.1471 17.426 17.1396 17.4195 17.1295 17.4104C17.1093 17.3924 17.0783 17.3646 17.0381 17.3277C16.9576 17.254 16.8407 17.1447 16.6994 17.0065C16.4156 16.7289 16.04 16.3407 15.6672 15.895C15.2916 15.4459 14.9365 14.9592 14.6796 14.4845C14.4154 13.9964 14.3001 13.6029 14.3001 13.3192H12.3001C12.3001 14.0789 12.5848 14.8158 12.9206 15.4364C13.2637 16.0704 13.7086 16.6706 14.133 17.1781C14.5602 17.6889 14.9846 18.1268 15.3008 18.4362C15.4595 18.5914 15.5926 18.7158 15.6871 18.8024C15.7344 18.8458 15.7721 18.8797 15.7988 18.9035C15.8121 18.9154 15.8227 18.9247 15.8303 18.9314C15.834 18.9347 15.8371 18.9374 15.8394 18.9394C15.8405 18.9404 15.8415 18.9412 15.8422 18.9419C15.8426 18.9422 15.8429 18.9425 15.8432 18.9427C15.8434 18.9428 15.8435 18.943 15.8436 18.9431C15.8438 18.9432 15.8439 18.9433 16.5001 18.1887ZM14.3001 13.3192C14.3001 12.1632 15.2642 11.1887 16.5001 11.1887V9.18872C14.2013 9.18872 12.3001 11.0174 12.3001 13.3192H14.3001ZM16.5001 11.1887C17.736 11.1887 18.7001 12.1632 18.7001 13.3192H20.7001C20.7001 11.0174 18.7989 9.18872 16.5001 9.18872V11.1887ZM21.9001 20.3221C21.9001 20.3419 21.8947 20.4513 21.6954 20.6477C21.4925 20.8475 21.1477 21.0734 20.641 21.2846C19.6318 21.7051 18.1684 21.9887 16.5001 21.9887V23.9887C18.3664 23.9887 20.103 23.6754 21.4102 23.1307C22.0616 22.8593 22.6541 22.5107 23.0989 22.0724C23.5473 21.6307 23.9001 21.0386 23.9001 20.3221H21.9001ZM16.5001 21.9887C14.8318 21.9887 13.3684 21.7051 12.3592 21.2846C11.8525 21.0734 11.5077 20.8475 11.3048 20.6477C11.1055 20.4513 11.1001 20.3419 11.1001 20.3221H9.1001C9.1001 21.0386 9.45286 21.6307 9.90126 22.0724C10.3461 22.5107 10.9386 22.8593 11.59 23.1307C12.8972 23.6754 14.6338 23.9887 16.5001 23.9887V21.9887ZM11.1001 20.3221C11.1001 20.3002 11.1124 20.1286 11.4768 19.8478C11.8311 19.5747 12.4013 19.2982 13.1733 19.0789L12.6269 17.155C11.7087 17.4157 10.8789 17.7835 10.2558 18.2638C9.64267 18.7363 9.1001 19.4273 9.1001 20.3221H11.1001ZM19.8269 19.0789C20.5989 19.2982 21.1691 19.5747 21.5234 19.8478C21.8878 20.1286 21.9001 20.3002 21.9001 20.3221H23.9001C23.9001 19.4273 23.3575 18.7363 22.7444 18.2638C22.1213 17.7835 21.2915 17.4157 20.3733 17.155L19.8269 19.0789Z" fill="white"/>
</svg>
