<svg width="12" height="12" viewBox="0 0 12 12" fill="currentColor" xmlns="http://www.w3.org/2000/svg">
<path fill-rule="evenodd" clip-rule="evenodd" d="M2.87089 0.00390625C3.22593 0.00390625 3.51375 0.291723 3.51375 0.646764V4.61256C4.06536 4.39185 4.44087 3.89458 4.45275 3.3217C4.47045 2.46735 4.41496 1.61419 4.28558 0.741087C4.23353 0.389882 4.47605 0.0629828 4.82726 0.010937C5.17846 -0.0411088 5.50536 0.201408 5.55741 0.552613C5.69695 1.49424 5.75745 2.41938 5.73819 3.34834C5.71196 4.61397 4.83339 5.56576 3.72803 5.89469V11.1444C3.72803 11.6178 3.34427 12.0015 2.87089 12.0015C2.3975 12.0015 2.01375 11.6178 2.01375 11.1444V5.89472C0.908331 5.56581 0.0297187 4.614 0.00348739 3.34834C-0.0157658 2.41938 0.0447288 1.49424 0.184271 0.552612C0.236317 0.201408 0.563217 -0.0411089 0.914417 0.010937C1.26562 0.0629829 1.50814 0.389882 1.4561 0.741087C1.32671 1.61419 1.27122 2.46735 1.28893 3.3217C1.3008 3.89462 1.67636 4.39191 2.22803 4.6126V0.646764C2.22803 0.291723 2.51584 0.00390625 2.87089 0.00390625ZM9.32143 0.0139509C8.50144 0.0139509 7.80925 0.28909 7.33005 0.85221C6.85975 1.40485 6.64286 2.17835 6.64286 3.08651C6.64286 3.99467 6.85975 4.76817 7.33005 5.32082C7.6311 5.67459 8.01622 5.91471 8.46429 6.04434V11.1444C8.46429 11.6178 8.84803 12.0015 9.32143 12.0015C9.79483 12.0015 10.1786 11.6178 10.1786 11.1444V6.04434C10.6266 5.91471 11.0117 5.67459 11.3128 5.32082C11.7831 4.76817 12 3.99467 12 3.08651C12 2.17835 11.7831 1.40485 11.3128 0.85221C10.8336 0.28909 10.1414 0.0139509 9.32143 0.0139509Z" fill="currentColor"/>
</svg>
