<svg width="24" height="24" viewBox="0 0 24 24" fill="none" xmlns="http://www.w3.org/2000/svg">
<path d="M18.9997 8.57031C18.9997 9.11886 19.0133 9.83074 19.0477 10.5893C19.1962 13.8545 21.4725 17.6291 19.2318 20.1045C18.7625 20.6228 18.1042 21.0829 17.1997 21.4275" stroke="#FFBA89"/>
<path fill-rule="evenodd" clip-rule="evenodd" d="M17.2 1.33333C17.2 0.596953 16.5732 0 15.8 0H4.19999C3.4268 0 2.79999 0.596955 2.79999 1.33333V19.7143C2.79999 20.1877 2.39706 20.5715 1.9 20.5715C1.40294 20.5715 1 20.9552 1 21.4285V22.6667C1 23.4031 1.6268 24 2.4 24H17.5999C18.3732 24 18.9999 23.4031 18.9999 22.6667V21.4285C18.9999 20.9552 18.597 20.5715 18.1 20.5715C17.6029 20.5715 17.2 20.1877 17.2 19.7143V1.33333Z" fill="#FFBA89"/>
<path d="M13.6 2.6665H6.59995C5.82675 2.6665 5.19995 3.26346 5.19995 3.99984V7.99984C5.19995 8.73622 5.82675 9.33317 6.59995 9.33317H13.6C14.3731 9.33317 15 8.73622 15 7.99984V3.99984C15 3.26346 14.3731 2.6665 13.6 2.6665Z" fill="white"/>
<path d="M6.52012 16.0867L9.73888 10.7222C9.81009 10.6035 10.0004 10.6516 10.0004 10.7883V13.5815C10.0004 13.6551 10.0631 13.7149 10.1404 13.7149H12.4592C12.5667 13.7149 12.6341 13.8254 12.5807 13.9143L9.36198 19.2789C9.29075 19.3977 9.10042 19.3495 9.10042 19.2127V16.4195C9.10042 16.3459 9.03774 16.2862 8.96042 16.2862H6.64167C6.53418 16.2862 6.46678 16.1757 6.52012 16.0867Z" fill="white"/>
<path d="M17.1997 1.71338H20.0997C20.4863 1.71338 20.7997 2.01185 20.7997 2.38005V7.90385C20.7997 8.27203 20.4863 8.57051 20.0997 8.57051H17.1997V1.71338Z" fill="#FFBA89"/>
</svg>
