<svg width="25" height="24" viewBox="0 0 25 24" fill="none" xmlns="http://www.w3.org/2000/svg">
<path d="M17.647 16.5C20.4896 16.5 22.794 14.1495 22.794 11.25V2.25" stroke="#FFBA89" stroke-width="2" stroke-linecap="round"/>
<path d="M1.4707 6C1.4707 2.68629 4.10432 0 7.35306 0H13.2354C16.4841 0 19.1178 2.68629 19.1178 6V22.5C19.1178 23.3284 18.4594 24 17.6472 24H2.94129C2.12911 24 1.4707 23.3284 1.4707 22.5V6Z" fill="#FF7512"/>
<path d="M18.3824 19.5H2.20588C0.987607 19.5 0 20.5074 0 21.75C0 22.9926 0.987607 24 2.20588 24H18.3824C19.6006 24 20.5882 22.9926 20.5882 21.75C20.5882 20.5074 19.6006 19.5 18.3824 19.5Z" fill="#FF7512"/>
<path d="M5.88232 6H14.7059" stroke="#FFD6B8" stroke-width="2" stroke-linecap="round"/>
<path d="M9.96037 11.3168C10.084 11.0142 10.5043 11.0142 10.6279 11.3168L12.1041 14.9305C12.6422 16.2479 11.6933 17.6998 10.2941 17.6998C8.89495 17.6998 7.94602 16.2479 8.48417 14.9305L9.96037 11.3168Z" fill="#FFF1E7"/>
</svg>
