<svg width="50" height="48" viewBox="0 0 50 48" fill="none" xmlns="http://www.w3.org/2000/svg">
<g clip-path="url(#clip0_742_2754)">
<path fill-rule="evenodd" clip-rule="evenodd" d="M36.3202 35.3516H31.8652V37.7816C31.8652 39.1236 33.8598 40.2114 36.3202 40.2114C38.7806 40.2114 40.775 39.1236 40.775 37.7816V35.3516H36.3202Z" fill="url(#paint0_linear_742_2754)"/>
<path fill-rule="evenodd" clip-rule="evenodd" d="M48.0064 24.8175C48.0434 24.551 48.0624 24.2808 48.0624 24.0075C48.0624 19.5341 42.9854 15.0977 36.7226 15.0977C30.4598 15.0977 25.3828 19.5341 25.3828 24.0075C25.3828 24.2808 25.4018 24.551 25.4388 24.8175C25.4018 25.0839 25.3828 25.3541 25.3828 25.6274C25.3828 30.1008 30.4598 36.9672 36.7226 36.9672C42.9854 36.9672 48.0624 30.1008 48.0624 25.6274C48.0624 25.3541 48.0434 25.0839 48.0064 24.8175Z" fill="url(#paint1_linear_742_2754)"/>
<path d="M36.7245 30.4882C42.9873 30.4882 48.0643 27.9497 48.0643 24.8183C48.0643 21.6869 42.9873 19.1484 36.7245 19.1484C30.4618 19.1484 25.3848 21.6869 25.3848 24.8183C25.3848 27.9497 30.4618 30.4882 36.7245 30.4882Z" fill="url(#paint2_linear_742_2754)"/>
<path d="M36.7237 30.4893C42.0918 30.4893 46.4435 28.3135 46.4435 25.6294C46.4435 22.9454 42.0918 20.7695 36.7237 20.7695C31.3556 20.7695 27.0039 22.9454 27.0039 25.6294C27.0039 28.3135 31.3556 30.4893 36.7237 30.4893Z" fill="url(#paint3_linear_742_2754)" fill-opacity="0.5"/>
<path d="M27.8147 22.3903L28.3043 21.9006C29.5365 20.6683 31.2427 20.0314 32.9809 20.1548H34.2105C34.2305 20.1548 34.2327 20.1841 34.2127 20.187L33.7691 20.2522C31.4549 20.5925 29.2601 21.4977 27.3787 22.8877C27.3645 22.8982 27.3477 22.8789 27.3599 22.8662L27.8147 22.3903Z" fill="#F9E9D3"/>
<path d="M29.9259 23.0339L30.2309 22.7529C30.9983 22.0457 32.0347 21.7064 33.0717 21.8228L33.8075 21.8529C33.8195 21.8533 33.8201 21.8709 33.8081 21.8722L33.5411 21.9004C32.1479 22.0473 30.8125 22.5352 29.6527 23.3209C29.6441 23.3268 29.6343 23.3149 29.6419 23.3076L29.9259 23.0339Z" fill="#F9E9D3"/>
<path d="M35.5186 21.7954L32.4232 22.9875C32.114 23.1066 31.9598 23.4538 32.0789 23.763L32.812 25.6667C32.9311 25.9759 33.2784 26.1301 33.5876 26.011L36.683 24.8189C36.9922 24.6998 37.1464 24.3525 37.0273 24.0433L36.2942 22.1397C36.1751 21.8304 35.8278 21.6763 35.5186 21.7954Z" fill="#FFF5A0"/>
<path d="M42.5927 24.1721L39.6002 23.6893C39.273 23.6365 38.9703 23.8597 38.924 24.1879L38.6396 26.2033C38.5933 26.5314 38.821 26.8402 39.1481 26.893L42.1407 27.3758C42.4678 27.4285 42.7706 27.2053 42.8169 26.8772L43.1013 24.8617C43.1476 24.5336 42.9199 24.2248 42.5927 24.1721Z" fill="#FFF5A0"/>
<path d="M32.2992 23.6384C32.0942 23.4339 32.1678 23.0861 32.438 22.982L35.7094 21.7221C35.9138 21.6434 36.1438 21.7439 36.2248 21.9475L36.5874 22.8588C36.6642 23.0519 36.5804 23.2716 36.3946 23.3645L33.7408 24.6913C33.587 24.7683 33.4012 24.7382 33.2794 24.6167L32.2992 23.6384Z" fill="#FFFBD7"/>
<path d="M39.1587 24.1792C39.0869 23.9008 39.3187 23.6439 39.6005 23.6893L42.7941 24.2045C43.0107 24.2395 43.1621 24.4427 43.1337 24.6602L43.0067 25.6328C42.9801 25.8378 42.8019 25.9855 42.5961 25.9737L39.8727 25.8171C39.6969 25.807 39.5463 25.6824 39.5019 25.5104L39.1587 24.1792Z" fill="#FFFBD7"/>
<path fill-rule="evenodd" clip-rule="evenodd" d="M36.2002 7.05522C36.6056 6.8246 37.0564 7.36676 37.2996 7.75113C38.0488 8.93495 39.1788 11.561 37.3746 14.412C36.86 15.225 36.6406 17.1159 37.2996 20.2375C37.4314 20.8619 37.7738 21.5372 37.7738 21.5372C37.3804 21.7859 36.6406 20.8619 36.6406 20.8619C34.3232 17.5662 35.104 14.8449 35.9064 13.5768C37.263 11.4332 36.768 8.64879 36.2002 7.75154C36.0252 7.47526 35.8924 7.35555 35.982 7.22442C36.017 7.17312 36.0862 7.12007 36.2002 7.05522Z" fill="white" fill-opacity="0.58"/>
<path fill-rule="evenodd" clip-rule="evenodd" d="M41.0594 10.269C41.4648 10.1408 41.9158 10.442 42.159 10.6556C42.9082 11.3133 44.0382 12.7722 42.234 14.356C41.7194 14.8077 41.4998 15.8583 42.159 17.5925C42.2908 17.9393 42.6332 18.3145 42.6332 18.3145C42.2398 18.4526 41.4998 17.9393 41.4998 17.9393C39.1826 16.1084 39.9634 14.5965 40.7658 13.8921C42.1224 12.7012 41.6272 11.1543 41.0594 10.6558C40.8846 10.5023 40.7516 10.4358 40.8414 10.363C40.8764 10.3345 40.9454 10.305 41.0594 10.269Z" fill="white" fill-opacity="0.58"/>
<path fill-rule="evenodd" clip-rule="evenodd" d="M31.3408 10.269C31.7462 10.1408 32.197 10.442 32.4402 10.6556C33.1894 11.3133 34.3194 12.7722 32.5152 14.356C32.0006 14.8077 31.7812 15.8583 32.4402 17.5925C32.5722 17.9393 32.9144 18.3145 32.9144 18.3145C32.5212 18.4526 31.7812 17.9393 31.7812 17.9393C29.4638 16.1084 30.2446 14.5965 31.0472 13.8921C32.4036 12.7012 31.9086 11.1543 31.3408 10.6558C31.1658 10.5023 31.033 10.4358 31.1226 10.363C31.1576 10.3345 31.2268 10.305 31.3408 10.269Z" fill="white" fill-opacity="0.58"/>
<path fill-rule="evenodd" clip-rule="evenodd" d="M12.7791 36.2422H8.32422V38.6722C8.32422 40.0142 10.3187 41.102 12.7791 41.102C15.2395 41.102 17.234 40.0142 17.234 38.6722V36.2422H12.7791Z" fill="#3D3330"/>
<path d="M13.1843 37.8631C20.3418 37.8631 26.1441 32.7861 26.1441 26.5234C26.1441 20.2606 20.3418 15.1836 13.1843 15.1836C6.02688 15.1836 0.224609 20.2606 0.224609 26.5234C0.224609 32.7861 6.02688 37.8631 13.1843 37.8631Z" fill="url(#paint4_linear_742_2754)"/>
<path d="M25.544 21.2158C25.8738 22.3681 26.2702 23.5326 26.1928 24.7286C25.8114 30.6212 19.7257 31.2976 13.1846 31.2976C6.02716 31.2976 -1.39517 28.8676 0.224892 22.9201C0.224892 20.0785 0.224798 17.5279 3.46474 15.9079C4.27472 12.668 9.15862 10.3203 13.1846 10.3203C16.7898 10.3203 19.8456 11.9434 22.0944 14.3471C24.8342 15.6671 24.6778 18.1878 25.544 21.2158Z" fill="url(#paint5_linear_742_2754)"/>
<path d="M17.747 18.1923C18.398 17.5785 18.6769 16.8171 18.37 16.4916C18.0631 16.1661 17.2866 16.3999 16.6357 17.0136C15.9847 17.6274 15.7058 18.3888 16.0127 18.7143C16.3196 19.0398 17.0961 18.8061 17.747 18.1923Z" fill="#E3E3E3"/>
<path d="M18.7138 12.6376C19.3648 12.0238 19.6437 11.2624 19.3368 10.9369C19.0299 10.6115 18.2534 10.8452 17.6025 11.459C16.9515 12.0727 16.6726 12.8342 16.9795 13.1596C17.2864 13.4851 18.0629 13.2514 18.7138 12.6376Z" fill="#E3E3E3"/>
<path d="M12.3317 9.92271C11.8017 9.20192 11.0799 8.83245 10.7195 9.09747C10.3591 9.36248 10.4966 10.1616 11.0266 10.8824C11.5567 11.6032 12.2785 11.9727 12.6389 11.7076C12.9993 11.4426 12.8617 10.6435 12.3317 9.92271Z" fill="#E3E3E3"/>
<path d="M14.8739 15.2C14.8135 14.3074 14.4026 13.6083 13.9563 13.6385C13.51 13.6687 13.1972 14.4169 13.2577 15.3095C13.3182 16.2022 13.729 16.9013 14.1753 16.871C14.6216 16.8408 14.9344 16.0927 14.8739 15.2Z" fill="#E3E3E3"/>
<path d="M8.45425 14.4186C7.56268 14.3441 6.8097 14.645 6.77243 15.0908C6.73515 15.5366 7.42769 15.9584 8.31926 16.033C9.21083 16.1075 9.96381 15.8066 10.0011 15.3608C10.0384 14.915 9.34583 14.4932 8.45425 14.4186Z" fill="#E3E3E3"/>
<path d="M8.81648 16.9998C8.00259 17.3714 7.4934 18.0025 7.67918 18.4094C7.86495 18.8164 8.67533 18.8451 9.48922 18.4735C10.3031 18.102 10.8123 17.4709 10.6265 17.0639C10.4407 16.657 9.63036 16.6283 8.81648 16.9998Z" fill="#E3E3E3"/>
<path d="M20.6582 22.3866L18.2241 21.7344" stroke="#6B6B6B" stroke-width="2" stroke-linecap="round"/>
<path d="M9.13869 21.6641L6.70459 22.3163" stroke="#6B6B6B" stroke-width="2" stroke-linecap="round"/>
<path d="M12.5233 24.2852H14.6061C14.8207 24.2852 14.9947 24.4591 14.9947 24.6737V25.7151C14.9947 26.5048 14.3545 27.145 13.5647 27.145C12.775 27.145 12.1348 26.5048 12.1348 25.7151V24.6737C12.1348 24.4591 12.3087 24.2852 12.5233 24.2852Z" stroke="#6B6B6B" stroke-width="2"/>
</g>
<defs>
<linearGradient id="paint0_linear_742_2754" x1="36.3202" y1="35.3516" x2="36.3202" y2="40.2114" gradientUnits="userSpaceOnUse">
<stop stop-color="#B83D2D"/>
<stop offset="1" stop-color="#A03325"/>
</linearGradient>
<linearGradient id="paint1_linear_742_2754" x1="36.7226" y1="17.5276" x2="36.7226" y2="36.9672" gradientUnits="userSpaceOnUse">
<stop offset="0.671875" stop-color="#CF4432"/>
<stop offset="0.958333" stop-color="#8D2D23"/>
<stop offset="1" stop-color="#8D2E27"/>
</linearGradient>
<linearGradient id="paint2_linear_742_2754" x1="36.7245" y1="19.1484" x2="36.7245" y2="30.4882" gradientUnits="userSpaceOnUse">
<stop stop-color="#FFD881"/>
<stop offset="1" stop-color="#D18B50"/>
</linearGradient>
<linearGradient id="paint3_linear_742_2754" x1="36.7237" y1="20.7695" x2="36.7237" y2="30.4894" gradientUnits="userSpaceOnUse">
<stop stop-color="#F1A349"/>
<stop offset="1" stop-color="#F6AA4D"/>
</linearGradient>
<linearGradient id="paint4_linear_742_2754" x1="13.1843" y1="33.0032" x2="13.1843" y2="37.8632" gradientUnits="userSpaceOnUse">
<stop stop-color="#473D3C"/>
<stop offset="1" stop-color="#251B16"/>
</linearGradient>
<linearGradient id="paint5_linear_742_2754" x1="13.1844" y1="11.1603" x2="13.1844" y2="34.6798" gradientUnits="userSpaceOnUse">
<stop stop-color="white"/>
<stop offset="1" stop-color="#E2E2E2"/>
</linearGradient>
<clipPath id="clip0_742_2754">
<rect width="50" height="36" fill="white" transform="translate(0 7)"/>
</clipPath>
</defs>
</svg>
