<svg width="width" height="height" viewBox="0 0 41 40" fill="none" xmlns="http://www.w3.org/2000/svg">
<g>
<path d="M34.8668 14.0841C33.1168 6.38415 26.4002 2.91748 20.5002 2.91748C20.5002 2.91748 20.5002 2.91748 20.4835 2.91748C14.6002 2.91748 7.86683 6.36748 6.11683 14.0675C4.16683 22.6675 9.43349 29.9508 14.2002 34.5341C15.9668 36.2341 18.2335 37.0841 20.5002 37.0841C22.7668 37.0841 25.0335 36.2341 26.7835 34.5341C31.5502 29.9508 36.8168 22.6841 34.8668 14.0841ZM20.5002 22.4341C17.6002 22.4341 15.2502 20.0841 15.2502 17.1841C15.2502 14.2841 17.6002 11.9341 20.5002 11.9341C23.4002 11.9341 25.7502 14.2841 25.7502 17.1841C25.7502 20.0841 23.4002 22.4341 20.5002 22.4341Z" fill="fill"/>
</g>
</svg>
