<svg width="16" height="16" viewBox="0 0 16 16" fill="currentColor" xmlns="http://www.w3.org/2000/svg">
<g clip-path="url(#clip0_742_2724)">
<path d="M1.36938 1.96042C1.41971 1.74041 1.72782 1.74041 1.77815 1.96042L2.04397 3.12255C2.06 3.19268 2.10974 3.24983 2.17623 3.27457L2.87138 3.53321C3.05501 3.60153 3.05501 3.86556 2.87138 3.93388L2.17623 4.19252C2.10974 4.21727 2.06 4.27444 2.04397 4.34455L1.77815 5.50668C1.72782 5.72671 1.41971 5.72671 1.36938 5.50668L1.10356 4.34455C1.08753 4.27444 1.03779 4.21727 0.971296 4.19252L0.276148 3.93388C0.092521 3.86556 0.092521 3.60153 0.276148 3.53321L0.971296 3.27457C1.03779 3.24983 1.08753 3.19268 1.10356 3.12255L1.36938 1.96042Z" fill="#FF7512"/>
<path d="M12.2002 11.48C12.2321 11.3433 12.4235 11.3433 12.4554 11.48L12.6656 12.3806C12.6759 12.4245 12.7072 12.4601 12.749 12.4753L13.2951 12.6745C13.4109 12.7167 13.4109 12.8832 13.2951 12.9255L12.749 13.1246C12.7072 13.1398 12.6759 13.1754 12.6656 13.2193L12.4554 14.1199C12.4235 14.2566 12.2321 14.2566 12.2002 14.1199L11.99 13.2193C11.9798 13.1754 11.9484 13.1398 11.9067 13.1246L11.3606 12.9255C11.2447 12.8832 11.2447 12.7167 11.3606 12.6745L11.9067 12.4753C11.9484 12.4601 11.9798 12.4245 11.99 12.3806L12.2002 11.48Z" fill="#FF7512"/>
<path d="M4.32779 0C4.97967 2.8969e-08 5.50812 0.51168 5.50812 1.14286V14.8571C5.50812 15.4882 4.97967 16 4.32779 16C3.67591 16 3.14746 15.4882 3.14746 14.8571V1.14286C3.14746 0.51168 3.67591 -2.89691e-08 4.32779 0Z" fill="#FFBA89"/>
<path fill-rule="evenodd" clip-rule="evenodd" d="M15.1815 2.1333C15.8652 2.1333 16.2236 2.95861 15.763 3.47226L13.8602 5.59434C13.5864 5.89973 13.5864 6.36687 13.8602 6.67226L15.763 8.79434C16.2236 9.30799 15.8652 10.1333 15.1815 10.1333H3.40976C3.26489 10.1333 3.14746 10.0139 3.14746 9.86663V2.39997C3.14746 2.25269 3.26489 2.1333 3.40976 2.1333H15.1815Z" fill="#FF7512"/>
<mask id="mask0_742_2724" style="mask-type:alpha" maskUnits="userSpaceOnUse" x="3" y="2" width="13" height="9">
<path fill-rule="evenodd" clip-rule="evenodd" d="M15.1815 2.1333C15.8652 2.1333 16.2236 2.95861 15.763 3.47226L13.8602 5.59434C13.5864 5.89973 13.5864 6.36687 13.8602 6.67226L15.763 8.79434C16.2236 9.30799 15.8652 10.1333 15.1815 10.1333H3.40976C3.26489 10.1333 3.14746 10.0139 3.14746 9.86663V2.39997C3.14746 2.25269 3.26489 2.1333 3.40976 2.1333H15.1815Z" fill="#FF7512"/>
</mask>
<g mask="url(#mask0_742_2724)">
<path d="M3.14746 4.7998H15.7376V7.46647H3.14746V4.7998Z" fill="#FFBA89"/>
</g>
</g>
<defs>
<clipPath id="clip0_742_2724">
<rect width="16" height="16" fill="white"/>
</clipPath>
</defs>
</svg>
