<svg width="24" height="24" viewBox="0 0 24 24" fill="none" xmlns="http://www.w3.org/2000/svg">
<g clip-path="url(#clip0_742_2768)">
<path d="M21.177 14.7045L21.177 20.3516L2.82407 20.3516L2.82407 14.7045L21.177 14.7045Z" fill="#FFBA89"/>
<path d="M22.6667 18.9399H1.33333C0.596954 18.9399 0 19.5369 0 20.2733V20.4301C0 21.1665 0.596954 21.7635 1.33333 21.7635H22.6667C23.403 21.7635 24 21.1665 24 20.4301V20.2733C24 19.5369 23.403 18.9399 22.6667 18.9399Z" fill="#FFBA89"/>
<path fill-rule="evenodd" clip-rule="evenodd" d="M9.88228 2.70588C9.88228 2.31603 10.1983 2 10.5882 2H11.9999H13.4117C13.8015 2 14.1175 2.31603 14.1175 2.70588C14.1175 3.09573 13.8015 3.41176 13.4117 3.41176H12.7058V4.84577C18.2861 5.17896 22.8391 9.32549 23.7947 14.7151C23.9285 15.47 23.3129 16.1183 22.5461 16.1183H1.41273C0.645995 16.1183 0.0302761 15.47 0.16413 14.7151C1.12204 9.31228 5.69509 5.15864 11.294 4.84339V3.41176H10.5882C10.1983 3.41176 9.88228 3.09573 9.88228 2.70588Z" fill="#FFBA89"/>
<path d="M9.33325 7.3335C8.49992 7.58747 6.53325 8.47635 5.33325 10.0002L9.33325 7.3335Z" fill="white"/>
<path d="M9.33325 7.3335C8.49992 7.58747 6.53325 8.47635 5.33325 10.0002" stroke="white" stroke-width="2" stroke-linecap="round"/>
<path d="M3.5 13C3.5 13.2761 3.27614 13.5 3 13.5C2.72386 13.5 2.5 13.2761 2.5 13C2.5 12.7239 2.72386 12.5 3 12.5C3.27614 12.5 3.5 12.7239 3.5 13Z" fill="#FFF1E7" stroke="white"/>
</g>
<defs>
<clipPath id="clip0_742_2768">
<rect width="24" height="20" fill="white" transform="translate(0 2)"/>
</clipPath>
</defs>
</svg>
