<svg width="24" height="24" viewBox="0 0 24 24" fill="none" xmlns="http://www.w3.org/2000/svg">
<g clip-path="url(#clip0_742_2768)">
<path d="M19.0667 0H5.86668C4.24665 0 2.93335 1.34315 2.93335 3V21C2.93335 22.6569 4.24665 24 5.86668 24H19.0667C20.6867 24 22 22.6569 22 21V3C22 1.34315 20.6867 0 19.0667 0Z" fill="#FF7512"/>
<path d="M1.46655 7.5H4.39989" stroke="#FFBA89" stroke-width="2" stroke-linecap="round"/>
<path d="M1.46655 16.5H4.39989" stroke="#FFBA89" stroke-width="2" stroke-linecap="round"/>
<path d="M13.8699 12.0597C13.8727 12.0259 13.9003 12 13.9334 12C13.9665 12 13.9941 12.0259 13.9968 12.0597L14.5474 18.8175C14.5774 19.1849 14.2939 19.5 13.9334 19.5C13.5729 19.5 13.2894 19.1849 13.3193 18.8175L13.8699 12.0597Z" fill="#FFF1E7" stroke="#FFF1E7"/>
<path d="M12.4201 5.51355C12.5623 5.12571 12.3701 4.6934 11.9909 4.54796C11.6117 4.40252 11.189 4.59902 11.0468 4.98686L10.3917 6.77339C9.46441 9.30242 11.2924 12.0002 13.9334 12.0002C16.5744 12.0002 18.4024 9.30242 17.4751 6.77339L16.8201 4.98686C16.6778 4.59902 16.2551 4.40252 15.876 4.54796C15.4967 4.6934 15.3046 5.12571 15.4468 5.51355L16.1018 7.30007C16.3148 7.8807 16.2904 8.47586 16.0916 8.993C15.7256 9.94485 14.6667 9.32576 14.6667 8.30297V5.25021C14.6667 4.83599 14.3384 4.50021 13.9334 4.50021C13.5284 4.50021 13.2001 4.83599 13.2001 5.25021V8.30297C13.2001 9.32576 12.1412 9.94485 11.7752 8.993C11.5764 8.47586 11.5521 7.8807 11.765 7.30007L12.4201 5.51355Z" fill="#FFF1E7"/>
</g>
<defs>
<clipPath id="clip0_742_2768">
<rect width="22" height="24" fill="white"/>
</clipPath>
</defs>
</svg>
