<svg width="24" height="24" viewBox="0 0 24 24" fill="none" xmlns="http://www.w3.org/2000/svg">
<g clip-path="url(#clip0_742_2774)">
<path d="M12 24C18.6274 24 24 18.6274 24 12C24 5.37258 18.6274 0 12 0C5.37258 0 0 5.37258 0 12C0 18.6274 5.37258 24 12 24Z" fill="#FF7512"/>
<path d="M13.3835 11.5109C13.3835 13.1274 13.449 15.7707 13.3835 17.562C13.3398 18.4357 13.2524 19.7682 12.0073 19.7028C11.1116 19.659 10.7402 18.8944 10.6966 17.5837C10.6747 16.2294 10.631 13.9794 10.6529 12.6031C10.6747 11.7949 10.5 10.1128 11.0461 9.37006C11.4393 8.88948 12.75 8.86762 13.1214 9.41376C13.3398 9.76327 13.3835 10.79 13.3835 11.5109ZM12.5534 7.09819C11.6577 7.33848 11.0024 6.83605 10.8713 6.00594C10.631 4.76077 11.8543 4.06174 12.8811 4.80447C13.8859 5.52535 13.7112 6.72682 12.5534 7.09819Z" fill="#FFD6B8"/>
</g>
<defs>
<clipPath id="clip0_742_2774">
<rect width="24" height="24" fill="white"/>
</clipPath>
</defs>
</svg>
