<svg width="24" height="24" viewBox="0 0 24 24" fill="none" xmlns="http://www.w3.org/2000/svg">
<g clip-path="url(#clip0_742_2774)">
<path fill-rule="evenodd" clip-rule="evenodd" d="M17.0525 9.70183C17.3279 9.48003 17.663 9.33887 18.0158 9.31384C21.0706 9.09705 23.4637 7.09921 23.4637 4.66667C23.4637 2.08933 20.7773 0 17.4637 0C14.1499 0 11.4636 2.08933 11.4636 4.66667C11.4636 5.89793 12.0767 7.01783 13.0784 7.85176C13.5809 8.27012 13.8542 8.94075 13.5495 9.51932C13.0786 10.4136 12.4435 11.3333 12.1303 11.3333C13.1506 11.3333 15.4453 10.996 17.0525 9.70183Z" fill="#FFF1E7"/>
<path d="M14.5 4C15.0523 4 15.5 4.44772 15.5 5C15.5 5.55228 15.0523 6 14.5 6C13.9477 6 13.5 5.55228 13.5 5C13.5 4.44772 13.9477 4 14.5 4Z" fill="#FFBA89"/>
<path d="M17.5 4C18.0523 4 18.5 4.44772 18.5 5C18.5 5.55228 18.0523 6 17.5 6C16.9477 6 16.5 5.55228 16.5 5C16.5 4.44772 16.9477 4 17.5 4Z" fill="#FFBA89"/>
<path d="M20.5 4C21.0523 4 21.5 4.44772 21.5 5C21.5 5.55228 21.0523 6 20.5 6C19.9477 6 19.5 5.55228 19.5 5C19.5 4.44772 19.9477 4 20.5 4Z" fill="#FFBA89"/>
<path d="M3.34591 1.83262C7.36887 -0.205584 8.64321 4.51674 8.39543 6.68468C8.30791 7.45039 7.59895 8.08795 7.17508 8.7316C6.79035 9.31584 6.67896 10.0522 6.9696 10.6885C8.3776 13.7712 11.0152 15.3127 12.9409 16.22C13.7485 16.6004 14.7104 16.4071 15.3377 15.772C15.4997 15.608 15.6867 15.4674 15.8987 15.3766C19.1179 13.9974 21.8313 16.6311 22.5057 19.009C22.6972 19.6839 22.3901 20.3682 21.8972 20.8672L19.4465 23.3482C18.9313 23.8698 18.3732 24.0002 18.1585 24.0002C13.0063 24 7.42479 19.4363 5.27807 16.8283C0.371267 11.3641 -0.251875 7.0432 0.0707702 5.32988C0.101007 5.16931 0.159964 5.01778 0.243357 4.87728C0.856235 3.8447 2.34413 2.44114 3.34591 1.83262Z" fill="#FFBA89"/>
</g>
<defs>
<clipPath id="clip0_742_2774">
<rect width="24" height="24" fill="white"/>
</clipPath>
</defs>
</svg>
