<svg width="24" height="24" viewBox="0 0 24 24" fill="none" xmlns="http://www.w3.org/2000/svg">
<g clip-path="url(#clip0_742_2766)">
<path d="M12 24C18.6274 24 24 18.6274 24 12C24 5.37258 18.6274 0 12 0C5.37258 0 0 5.37258 0 12C0 18.6274 5.37258 24 12 24Z" fill="#FFBA89"/>
<path fill-rule="evenodd" clip-rule="evenodd" d="M12 24V0C18.6275 0 24 5.37259 24 12C24 18.6275 18.6275 24 12 24Z" fill="#FFBA89"/>
<path fill-rule="evenodd" clip-rule="evenodd" d="M10.6667 4H7.33341C6.96523 4 6.66675 4.29848 6.66675 4.66667V14.6667V19.3333C6.66675 19.7015 6.96523 20 7.33341 20H10.0001C10.3683 20 10.6667 19.7015 10.6667 19.3333V15.3333C10.6667 14.9652 10.9652 14.6667 11.3334 14.6667H14.6667C17.6122 14.6667 20.0001 12.2789 20.0001 9.33333C20.0001 6.38781 17.6122 4 14.6667 4H10.6667Z" fill="white"/>
<path d="M10.6667 7.24308C10.6667 6.92465 10.9249 6.6665 11.2433 6.6665H13.3334C14.8062 6.6665 16.0001 7.86041 16.0001 9.33317C16.0001 10.8059 14.8062 11.9998 13.3334 11.9998H11.2433C10.9249 11.9998 10.6667 11.7417 10.6667 11.4233V7.24308Z" fill="#FFBA89"/>
</g>
<defs>
<clipPath id="clip0_742_2766">
<rect width="24" height="24" fill="white"/>
</clipPath>
</defs>
</svg>
