<svg width="24" height="24" viewBox="0 0 24 24" fill="none" xmlns="http://www.w3.org/2000/svg">
<g clip-path="url(#clip0_742_2766)">
<path d="M12 24C18.6274 24 24 18.6274 24 12C24 5.37258 18.6274 0 12 0C5.37258 0 0 5.37258 0 12C0 18.6274 5.37258 24 12 24Z" fill="#FF7512"/>
<path d="M16.5275 5.82439C17.57 6.81697 18.0912 8.27418 17.987 9.62578C17.8827 10.914 17.1947 12.0967 15.7979 12.6458C14.6928 13.1315 13.6504 13.2793 12.3577 13.3849C11.774 13.4272 11.4404 13.4483 10.9192 13.4694C10.8149 13.4694 10.4605 13.4694 10.3563 13.4905V17.8621C10.2729 18.3901 10.252 19.0236 9.70997 19.3404C9.41808 19.5094 8.89686 19.5304 8.54244 19.4671C8.16716 19.4038 7.89612 19.2771 7.72934 18.897C7.62509 18.6435 7.5 18.3478 7.5 17.8621V6.1834C7.5 5.99334 7.5417 5.82439 7.56255 5.65543C7.60425 5.50761 7.64594 5.33866 7.68764 5.19082C7.75019 5.06412 7.81273 4.9374 7.91697 4.85292C8.04207 4.72621 8.31311 4.57837 8.89686 4.57837H8.93856C9.79337 4.53615 11.0026 4.45167 11.6906 4.53615C12.0659 4.57837 12.3994 4.59949 12.7122 4.62061C13.0458 4.64173 13.3793 4.68397 13.7129 4.72621C13.984 4.76845 14.2133 4.81069 14.4635 4.85292C14.6928 4.89516 14.9639 4.95852 15.1932 5.08524C15.4643 5.1697 15.7145 5.2753 15.923 5.40201C16.1313 5.52873 16.3398 5.67655 16.5275 5.82439ZM15.2766 9.309C15.36 7.93627 13.9214 7.34494 12.5662 7.176C12.2535 7.15488 11.2528 7.13376 10.94 7.11264C10.8149 7.09152 10.6065 7.09152 10.3563 7.09152C10.3771 7.95739 10.3771 8.71767 10.3771 9.6469C10.3563 10.1538 10.3563 10.6606 10.3563 11.1463L11.6489 11.1252C12.9832 11.1041 15.1307 10.8929 15.2766 9.309Z" fill="#FFD6B8"/>
</g>
<defs>
<clipPath id="clip0_742_2766">
<rect width="24" height="24" fill="white"/>
</clipPath>
</defs>
</svg>
