<svg width="69" height="48" viewBox="0 0 69 48" fill="none" xmlns="http://www.w3.org/2000/svg">
<path d="M25.0908 27.2002H41.8181V39.8002L33.4545 44.0002L25.0908 39.8002V27.2002Z" fill="#E15544"/>
<path d="M10.7361 13.9737C10.6732 13.912 10.7397 13.8081 10.8216 13.8399L11.1654 13.9731C17.6318 16.4796 24.4047 18.101 31.3016 18.7937C31.338 18.7974 31.3668 18.8258 31.3712 18.8622L32.4018 27.2886C32.4056 27.319 32.3805 27.3453 32.35 27.3428L24.3236 26.6861C20.0539 26.3367 15.9856 24.714 12.6406 22.0263C12.6216 22.0111 12.638 21.9809 12.661 21.9886L15.0044 22.7732C15.2026 22.8395 15.3645 22.6052 15.2332 22.442L11.9948 18.4145C11.8601 18.2469 12.0339 18.0086 12.2336 18.087L15.7694 19.4741C15.9816 19.5574 16.1545 19.2881 15.9915 19.1283L10.7361 13.9737Z" fill="url(#paint0_radial_742_2750)"/>
<g filter="url(#filter0_f_742_2750)">
<path d="M8.6495 10.702C8.5842 10.633 8.65916 10.5235 8.74666 10.56L9.27677 10.7813C16.5955 13.8364 24.3132 15.8204 32.1932 16.6728C32.2321 16.677 32.263 16.7077 32.2674 16.7468L33.4473 27.1361C33.4511 27.1693 33.4237 27.1974 33.3907 27.1945L24.452 26.4068C19.4295 25.9643 14.6724 23.9479 10.8527 20.6428C10.8323 20.6252 10.8514 20.5922 10.8768 20.6014L13.6815 21.6126C13.8768 21.683 14.0439 21.4556 13.9195 21.289L10.0215 16.0683C9.89357 15.8969 10.0733 15.6657 10.2699 15.7488L14.6111 17.583C14.8199 17.6712 14.9998 17.4096 14.8437 17.2447L8.6495 10.702Z" fill="white"/>
</g>
<path d="M58.2641 13.9737C58.327 13.912 58.2605 13.8081 58.1785 13.8399L57.8348 13.9731C51.3683 16.4796 44.5954 18.101 37.6985 18.7937C37.6621 18.7974 37.6333 18.8258 37.6289 18.8622L36.5983 27.2886C36.5945 27.319 36.6196 27.3453 36.6501 27.3428L44.6765 26.6861C48.9461 26.3367 53.0144 24.714 56.3595 22.0263C56.3785 22.0111 56.3622 21.9809 56.3392 21.9886L53.9957 22.7732C53.7975 22.8395 53.6356 22.6052 53.7669 22.442L57.0053 18.4145C57.14 18.2469 56.9662 18.0086 56.7666 18.087L53.2308 19.4741C53.0186 19.5574 52.8457 19.2881 53.0086 19.1283L58.2641 13.9737Z" fill="url(#paint1_radial_742_2750)"/>
<g filter="url(#filter1_f_742_2750)">
<path d="M60.3506 10.702C60.416 10.633 60.341 10.5235 60.2536 10.56L59.7233 10.7813C52.4045 13.8364 44.687 15.8204 36.807 16.6728C36.7681 16.677 36.7371 16.7077 36.7327 16.7468L35.5528 27.1361C35.5491 27.1693 35.5765 27.1974 35.6095 27.1945L44.5481 26.4068C49.5707 25.9643 54.3277 23.9479 58.1474 20.6428C58.1679 20.6252 58.1489 20.5922 58.1234 20.6014L55.3186 21.6126C55.1233 21.683 54.9563 21.4556 55.0807 21.289L58.9785 16.0683C59.1065 15.8969 58.9269 15.6657 58.7304 15.7488L54.389 17.583C54.1803 17.6712 54.0003 17.4096 54.1565 17.2447L60.3506 10.702Z" fill="white"/>
</g>
<path d="M33.4545 8.3C26.5259 8.3 20.9091 13.9412 20.9091 20.9C20.9091 27.8588 26.5259 33.5 33.4545 33.5C40.3832 33.5 46 27.8588 46 20.9C46 13.9412 40.3832 8.3 33.4545 8.3Z" fill="url(#paint2_linear_742_2750)"/>
<path d="M33.4545 29.3C38.0736 29.3 41.8181 25.5392 41.8181 20.9C41.8181 16.2608 38.0736 12.5 33.4545 12.5C28.8353 12.5 25.0908 16.2608 25.0908 20.9C25.0908 25.5392 28.8353 29.3 33.4545 29.3Z" fill="url(#paint3_linear_742_2750)"/>
<g filter="url(#filter2_f_742_2750)">
<path fill-rule="evenodd" clip-rule="evenodd" d="M27.1819 20.0419C27.1819 20.1346 27.1856 20.2266 27.193 20.3174C27.1856 20.3814 27.1819 20.4477 27.1819 20.5165C27.1819 22.5504 30.4562 25.9738 33.3609 27.2012C35.6848 26.3829 39.54 22.5503 39.54 20.5165C39.54 20.445 39.536 20.3763 39.5281 20.3101C39.535 20.2216 39.5385 20.1321 39.5385 20.0419C39.5385 18.1963 38.049 16.7002 36.2115 16.7002C35.0017 16.7002 33.9426 17.3487 33.3603 18.3185C32.7778 17.3487 31.7189 16.7002 30.5091 16.7002C28.6714 16.7002 27.1819 18.1963 27.1819 20.0419Z" fill="white"/>
</g>
<path fill-rule="evenodd" clip-rule="evenodd" d="M28.3049 20.3899C28.3049 20.4668 28.3081 20.543 28.3143 20.6183C28.3081 20.6712 28.3049 20.7262 28.3049 20.7832C28.3049 22.4473 30.984 25.2484 33.3608 26.2528C35.262 25.5831 38.4166 22.4473 38.4166 20.7832C38.4166 20.7282 38.4136 20.6752 38.4078 20.624C38.4143 20.5468 38.4176 20.4688 38.4176 20.3899C38.4176 18.8799 37.1988 17.6558 35.6953 17.6558C34.7046 17.6558 33.8375 18.1872 33.3614 18.9818C32.8851 18.1872 32.018 17.6558 31.0273 17.6558C29.5237 17.6558 28.3049 18.8799 28.3049 20.3899Z" fill="#FFF8D0"/>
<path d="M34.647 39.2012C34.1833 39.5263 33.3894 40.1138 32.2036 39.2921" stroke="black" stroke-linecap="round"/>
<path d="M29.2727 37.7655L30.9095 37.2856" stroke="black" stroke-linecap="round"/>
<path d="M36.1252 37.3389L37.793 37.6961" stroke="black" stroke-linecap="round"/>
<defs>
<filter id="filter0_f_742_2750" x="4.62476" y="6.55273" width="32.823" height="24.6421" filterUnits="userSpaceOnUse" color-interpolation-filters="sRGB">
<feFlood flood-opacity="0" result="BackgroundImageFix"/>
<feBlend mode="normal" in="SourceGraphic" in2="BackgroundImageFix" result="shape"/>
<feGaussianBlur stdDeviation="2" result="effect1_foregroundBlur_742_2750"/>
</filter>
<filter id="filter1_f_742_2750" x="31.5525" y="6.55273" width="32.823" height="24.6421" filterUnits="userSpaceOnUse" color-interpolation-filters="sRGB">
<feFlood flood-opacity="0" result="BackgroundImageFix"/>
<feBlend mode="normal" in="SourceGraphic" in2="BackgroundImageFix" result="shape"/>
<feGaussianBlur stdDeviation="2" result="effect1_foregroundBlur_742_2750"/>
</filter>
<filter id="filter2_f_742_2750" x="23.1819" y="12.7002" width="20.3582" height="18.501" filterUnits="userSpaceOnUse" color-interpolation-filters="sRGB">
<feFlood flood-opacity="0" result="BackgroundImageFix"/>
<feBlend mode="normal" in="SourceGraphic" in2="BackgroundImageFix" result="shape"/>
<feGaussianBlur stdDeviation="2" result="effect1_foregroundBlur_742_2750"/>
</filter>
<radialGradient id="paint0_radial_742_2750" cx="0" cy="0" r="1" gradientUnits="userSpaceOnUse" gradientTransform="translate(21.4319 20.5226) rotate(90) scale(6.825 13.6882)">
<stop stop-color="#FFFCE9"/>
<stop offset="1" stop-color="#FEEE98"/>
</radialGradient>
<radialGradient id="paint1_radial_742_2750" cx="0" cy="0" r="1" gradientUnits="userSpaceOnUse" gradientTransform="translate(47.5682 20.5226) rotate(90) scale(6.825 13.6882)">
<stop stop-color="#FFFCE9"/>
<stop offset="1" stop-color="#FEEE98"/>
</radialGradient>
<linearGradient id="paint2_linear_742_2750" x1="33.4545" y1="33.5" x2="33.4545" y2="19.85" gradientUnits="userSpaceOnUse">
<stop stop-color="#F9BB48"/>
<stop offset="1" stop-color="#FFEE68"/>
</linearGradient>
<linearGradient id="paint3_linear_742_2750" x1="33.4545" y1="12.5" x2="33.4545" y2="29.3" gradientUnits="userSpaceOnUse">
<stop stop-color="#F3C22E"/>
<stop offset="1" stop-color="#F09611"/>
</linearGradient>
</defs>
</svg>
