<svg width="24" height="24" viewBox="0 0 24 24" fill="none" xmlns="http://www.w3.org/2000/svg">
<g clip-path="url(#clip0_742_2762)">
<path d="M12 0C18.6274 0 24 5.37258 24 12C24 18.6274 18.6274 24 12 24C5.37258 24 0 18.6274 0 12C0 5.37258 5.37258 0 12 0Z" fill="#FFBA89"/>
<path d="M1.62598 7.30876C1.49769 7.59342 1.62443 7.92818 1.90909 8.05647L4.63257 9.28395C4.77489 9.3481 4.83827 9.51548 4.77413 9.6578C4.70998 9.80014 4.54259 9.86351 4.40028 9.79936L1.67679 8.57187C1.39214 8.44358 1.05739 8.57034 0.929091 8.85499C0.800796 9.13964 0.927549 9.4744 1.2122 9.6027L3.93567 10.8302C4.07801 10.8943 4.14138 11.0617 4.07723 11.204C4.01309 11.3464 3.8457 11.4097 3.70338 11.3456L0.979904 10.1181C0.695252 9.9898 0.360493 10.1166 0.232199 10.4012C0.103904 10.6859 0.230657 11.0206 0.515309 11.1489L5.17799 13.2504C5.53673 13.4121 5.95862 13.2524 6.1203 12.8936C6.29029 12.5165 6.74469 12.3629 7.10863 12.5596L14.3282 16.4618C14.9691 16.7508 15.8255 16.251 16.081 15.6841C16.3364 15.117 16.1362 14.1616 15.4951 13.8726L7.79166 10.9991C7.4129 10.8579 7.23262 10.4257 7.39874 10.0571C7.55734 9.70519 7.40065 9.29134 7.04873 9.13272L2.37369 7.02566C2.08903 6.89736 1.75427 7.02411 1.62598 7.30876Z" fill="white"/>
<path d="M17.1675 1.71896C17.6323 1.90121 17.7321 2.49712 17.7553 2.99577L17.985 7.95749C18.0729 9.28389 18.1058 11.1003 15.9571 10.8995C15.9177 10.8958 15.8785 10.8992 15.8395 10.9064C15.7527 10.9223 15.6818 10.9814 15.6495 11.0635L13.5167 16.492C13.2189 17.2502 12.3558 17.6151 11.6045 17.3006C10.8647 16.991 10.516 16.1402 10.8257 15.4003L16.3322 2.24573C16.3322 2.24573 16.6394 1.51185 17.1675 1.71896Z" fill="white"/>
</g>
<defs>
<clipPath id="clip0_742_2762">
<rect width="24" height="24" fill="white"/>
</clipPath>
</defs>
</svg>
