<svg width="33" height="24" viewBox="0 0 33 24" fill="none" xmlns="http://www.w3.org/2000/svg">
<g clip-path="url(#clip0_742_2762)">
<path d="M12 24C18.6274 24 24 18.6274 24 12C24 5.37258 18.6274 0 12 0C5.37258 0 0 5.37258 0 12C0 18.6274 5.37258 24 12 24Z" fill="#FF7512"/>
<path d="M17.628 5.80779C18.0456 5.09233 17.8041 4.17378 17.0887 3.75617C16.3732 3.33855 15.4547 3.58 15.037 4.29546L10.9833 11.2403C10.5657 11.9558 10.8071 12.8743 11.5226 13.292C12.238 13.7096 13.1566 13.4681 13.5742 12.7527L17.628 5.80779Z" fill="#FFD6B8"/>
<path d="M12 13.5C12.8284 13.5 13.5 12.8284 13.5 12C13.5 11.1716 12.8284 10.5 12 10.5H6C5.17157 10.5 4.5 11.1716 4.5 12C4.5 12.8284 5.17157 13.5 6 13.5H12Z" fill="#FFF1E7"/>
</g>
<g clip-path="url(#clip1_742_2762)">
<path d="M28 16C29.933 16 31.5 14.433 31.5 12.5V6.5" stroke="#FFBA89" stroke-width="2" stroke-linecap="round"/>
<path d="M17 9C17 6.79086 18.7909 5 21 5H25C27.2091 5 29 6.79086 29 9V20C29 20.5523 28.5523 21 28 21H18C17.4477 21 17 20.5523 17 20V9Z" fill="#FF7512"/>
<path d="M28.5 18H17.5C16.6716 18 16 18.6716 16 19.5C16 20.3284 16.6716 21 17.5 21H28.5C29.3284 21 30 20.3284 30 19.5C30 18.6716 29.3284 18 28.5 18Z" fill="#FF7512"/>
<path d="M20 9H26" stroke="#FFD6B8" stroke-width="2" stroke-linecap="round"/>
<path d="M22.7731 12.5449C22.8571 12.3431 23.1429 12.3431 23.227 12.5449L24.2308 14.954C24.5967 15.8323 23.9514 16.8002 23 16.8002C22.0486 16.8002 21.4033 15.8323 21.7692 14.954L22.7731 12.5449Z" fill="#FFF1E7"/>
</g>
<defs>
<clipPath id="clip0_742_2762">
<rect width="24" height="24" fill="white"/>
</clipPath>
<clipPath id="clip1_742_2762">
<rect width="17" height="16" fill="white" transform="translate(16 5)"/>
</clipPath>
</defs>
</svg>
