<svg width="24" height="102" viewBox="0 0 24 102" fill="none" xmlns="http://www.w3.org/2000/svg">
<circle cx="12" cy="12" r="10" fill="#FFD6B8"/>
<circle cx="12" cy="12" r="5" fill="#FF7512"/>
<path opacity="0.2" d="M12 28L12 74" stroke="#201404" stroke-width="1.5" stroke-linecap="round" stroke-linejoin="round" stroke-dasharray="2 5"/>
<g clip-path="url(#clip0_381_1181)">
<path d="M20.6201 86.45C19.5701 81.83 15.5401 79.75 12.0001 79.75C12.0001 79.75 12.0001 79.75 11.9901 79.75C8.4601 79.75 4.4201 81.82 3.3701 86.44C2.2001 91.6 5.3601 95.97 8.2201 98.72C9.2801 99.74 10.6401 100.25 12.0001 100.25C13.3601 100.25 14.7201 99.74 15.7701 98.72C18.6301 95.97 21.7901 91.61 20.6201 86.45ZM12.0001 91.46C10.2601 91.46 8.8501 90.05 8.8501 88.31C8.8501 86.57 10.2601 85.16 12.0001 85.16C13.7401 85.16 15.1501 86.57 15.1501 88.31C15.1501 90.05 13.7401 91.46 12.0001 91.46Z" fill="#FF7512"/>
</g>
<defs>
<clipPath id="clip0_381_1181">
<rect width="24" height="24" fill="white" transform="translate(0 78)"/>
</clipPath>
</defs>
</svg>
