<svg width="48" height="49" viewBox="0 0 48 49" fill="none" xmlns="http://www.w3.org/2000/svg">
<path d="M27.683 10.8706C27.8087 10.4769 27.5949 10.0548 27.2055 9.92778C26.8161 9.80074 26.3986 10.0169 26.273 10.4105L15.7028 43.5236C15.5772 43.9172 15.791 44.3393 16.1803 44.4664C16.5697 44.5934 16.9872 44.3773 17.1129 43.9836L27.683 10.8706Z" fill="#D0A757" stroke="#CCBA90" stroke-width="0.1"/>
<path d="M11.0555 32.7388C11.9688 32.1148 13.1249 31.9785 14.1557 32.3731L19.8558 34.5558L26.6121 36.094C28.0973 36.4322 28.4236 38.4244 27.1252 39.2282L24.1178 41.0906C23.3067 41.5927 22.3243 41.7277 21.4102 41.4621L18.6223 40.6526L14.3997 39.4264L8.67319 37.7634C7.28986 37.3617 6.99937 35.5101 8.19184 34.6953L11.0555 32.7388Z" fill="url(#paint0_linear_742_2752)"/>
<path d="M27.3129 36.5669C27.082 37.4683 19.0956 37.6027 15.4634 36.9404C15.2874 36.9084 15.2926 36.6651 15.4644 36.6151C17.958 35.8896 13.6251 35.5177 14.0654 34.7415C14.4111 34.1319 12.1151 32.8001 12.2193 32.3931C12.4664 31.4283 15.9341 33.3649 19.1011 34.194C22.2682 35.023 27.56 35.6021 27.3129 36.5669Z" fill="url(#paint1_radial_742_2752)"/>
<path d="M15.962 21.6764C16.8752 21.0524 18.0314 20.9159 19.0622 21.3107L24.7623 23.4933L31.5187 25.0316C33.0039 25.3696 33.3299 27.362 32.0318 28.1658L29.0243 30.028C28.2131 30.5303 27.2309 30.6651 26.3167 30.3997L23.5287 29.59L19.3062 28.3638L13.5797 26.7009C12.1964 26.2993 11.9059 24.4477 13.0983 23.6329L15.962 21.6764Z" fill="url(#paint2_linear_742_2752)"/>
<path d="M32.1209 25.7198C31.8652 26.718 23.7149 27.0564 20.0919 26.4048C19.9193 26.3738 19.9155 26.1379 20.0824 26.0837C22.7786 25.2092 18.3232 24.9091 18.7904 24.0398C19.1538 23.3636 16.8674 21.9598 16.9822 21.5115C17.2545 20.4487 20.7095 22.4864 23.887 23.3184C27.0646 24.1502 32.3932 24.6569 32.1209 25.7198Z" fill="url(#paint3_radial_742_2752)"/>
<path d="M15.9682 17.4233C16.4479 15.7347 18.2583 14.8271 19.8782 15.463L22.5534 16.5132C24.5745 17.3065 26.6623 17.9129 28.7917 18.3247L31.6104 18.87C33.3173 19.2002 34.3752 20.9407 33.8955 22.6293C33.4734 24.1144 32.0009 25.0293 30.4998 24.7389L26.9052 24.0436C24.9409 23.6637 23.0148 23.1043 21.1506 22.3725L17.7389 21.0331C16.3141 20.4739 15.5462 18.9084 15.9682 17.4233Z" fill="url(#paint4_linear_742_2752)"/>
<path d="M30.175 23.2992C30.5411 23.4751 31.5306 23.5424 32.5595 22.4038" stroke="#E0866E" stroke-width="0.5" stroke-linecap="round"/>
<path d="M20.8685 10.6172C21.7817 9.99326 22.9378 9.8569 23.9686 10.2516L29.6687 12.4342L36.4251 13.9725C37.9104 14.3106 38.2365 16.3028 36.9383 17.1068L33.9307 18.9691C33.1197 19.4712 32.1374 19.6061 31.2233 19.3406L28.4353 18.5311L24.2126 17.3048L18.4862 15.6418C17.1028 15.2401 16.8124 13.3886 18.0048 12.5738L20.8685 10.6172Z" fill="url(#paint5_linear_742_2752)"/>
<path d="M20.8744 6.36078C21.3542 4.67221 23.1645 3.7646 24.7844 4.40049L27.4596 5.45066C29.4807 6.24402 31.5687 6.85036 33.6981 7.26225L36.5168 7.80748C38.2234 8.13764 39.2815 9.87819 38.8016 11.5668C38.3798 13.0519 36.9073 13.9668 35.4059 13.6764L31.8113 12.981C29.8471 12.6011 27.9212 12.0418 26.0568 11.31L22.6451 9.97069C21.2203 9.41138 20.4525 7.84595 20.8744 6.36078Z" fill="url(#paint6_linear_742_2752)"/>
<path d="M35.0815 12.24C35.4476 12.416 36.437 12.4832 37.4658 11.3447" stroke="#E0866E" stroke-width="0.5" stroke-linecap="round"/>
<path d="M27.0553 16.0001C26.5178 16.146 25.5873 16.4245 24.7637 15.2578" stroke="#6E3333" stroke-linecap="round"/>
<path d="M22.561 12.8428L24.2357 12.9496" stroke="#6E3333" stroke-linecap="round"/>
<path d="M29.0457 14.7646L30.4698 15.6617" stroke="#6E3333" stroke-linecap="round"/>
<path d="M28.762 23.6218C28.987 23.6872 29.2218 23.5557 29.2865 23.3282C29.3511 23.1007 29.2211 22.8634 28.9961 22.798C28.771 22.7327 28.5362 22.8641 28.4716 23.0916C28.407 23.3191 28.537 23.5565 28.762 23.6218Z" fill="#E0866E"/>
<path d="M10.9672 28.8105C11.447 27.1219 13.2573 26.2143 14.8772 26.8502L17.5524 27.9003C19.5734 28.6937 21.6614 29.3001 23.7908 29.712L26.6095 30.2573C28.3163 30.5873 29.3742 32.328 28.8945 34.0166C28.4725 35.5017 27 36.4166 25.4988 36.1262L21.904 35.4309C19.9399 35.0508 18.0138 34.4916 16.1496 33.7598L12.7379 32.4204C11.3131 31.8612 10.5452 30.2957 10.9672 28.8105Z" fill="url(#paint7_linear_742_2752)"/>
<path d="M25.1758 34.6896C25.5419 34.8657 26.5313 34.9329 27.56 33.7944" stroke="#E0866E" stroke-width="0.5" stroke-linecap="round"/>
<defs>
<linearGradient id="paint0_linear_742_2752" x1="34.5488" y1="38.9101" x2="19.7452" y2="45.3473" gradientUnits="userSpaceOnUse">
<stop offset="0.0428684" stop-color="#F9E8BB"/>
<stop offset="1" stop-color="#FFFCF6"/>
</linearGradient>
<radialGradient id="paint1_radial_742_2752" cx="0" cy="0" r="1" gradientUnits="userSpaceOnUse" gradientTransform="translate(21.1704 35.6695) rotate(104.366) scale(1.80333 5.92753)">
<stop stop-color="#F5C594"/>
<stop offset="0.455" stop-color="#F09460"/>
<stop offset="1" stop-color="#E95A22"/>
</radialGradient>
<linearGradient id="paint2_linear_742_2752" x1="39.4552" y1="27.8475" x2="24.6516" y2="34.2847" gradientUnits="userSpaceOnUse">
<stop offset="0.0428684" stop-color="#F9E8BB"/>
<stop offset="1" stop-color="#FFFCF6"/>
</linearGradient>
<radialGradient id="paint3_radial_742_2752" cx="0" cy="0" r="1" gradientUnits="userSpaceOnUse" gradientTransform="translate(25.9411 24.8847) rotate(104.366) scale(1.98674 5.94732)">
<stop stop-color="#F5C594"/>
<stop offset="0.455" stop-color="#F09460"/>
<stop offset="1" stop-color="#E95A22"/>
</radialGradient>
<linearGradient id="paint4_linear_742_2752" x1="25.8252" y1="16.8818" x2="23.9145" y2="23.4615" gradientUnits="userSpaceOnUse">
<stop stop-color="#D2501B"/>
<stop offset="1" stop-color="#A83310"/>
</linearGradient>
<linearGradient id="paint5_linear_742_2752" x1="44.3617" y1="16.7884" x2="29.5582" y2="23.2257" gradientUnits="userSpaceOnUse">
<stop offset="0.0428684" stop-color="#F9E8BB"/>
<stop offset="1" stop-color="#FFFCF6"/>
</linearGradient>
<linearGradient id="paint6_linear_742_2752" x1="30.7315" y1="5.81931" x2="28.8209" y2="12.3989" gradientUnits="userSpaceOnUse">
<stop stop-color="#D2501B"/>
<stop offset="1" stop-color="#A83310"/>
</linearGradient>
<linearGradient id="paint7_linear_742_2752" x1="20.8242" y1="28.2691" x2="18.9136" y2="34.8486" gradientUnits="userSpaceOnUse">
<stop stop-color="#D2501B"/>
<stop offset="1" stop-color="#A83310"/>
</linearGradient>
</defs>
</svg>
