<svg width="12" height="12" viewBox="0 0 12 12" fill="currentColor" xmlns="http://www.w3.org/2000/svg">
<path d="M6.86447 1.75482L7.74447 3.51482C7.86447 3.75982 8.18447 3.99482 8.45447 4.03982L10.0495 4.30482C11.0695 4.47482 11.3095 5.21482 10.5745 5.94482L9.33447 7.18482C9.12447 7.39482 9.00947 7.79982 9.07447 8.08982L9.42947 9.62482C9.70947 10.8398 9.06447 11.3098 7.98947 10.6748L6.49447 9.78982C6.22447 9.62982 5.77947 9.62982 5.50447 9.78982L4.00947 10.6748C2.93947 11.3098 2.28947 10.8348 2.56947 9.62482L2.92447 8.08982C2.98947 7.79982 2.87447 7.39482 2.66447 7.18482L1.42447 5.94482C0.694466 5.21482 0.929466 4.47482 1.94947 4.30482L3.54447 4.03982C3.80947 3.99482 4.12947 3.75982 4.24947 3.51482L5.12947 1.75482C5.60947 0.799824 6.38947 0.799824 6.86447 1.75482Z" fill="currentColor"/>
</svg>
