<svg width="13" height="12" viewBox="0 0 13 12" fill="none" xmlns="http://www.w3.org/2000/svg">
<path d="M7.36447 1.75482L8.24447 3.51482C8.36447 3.75982 8.68447 3.99482 8.95447 4.03982L10.5495 4.30482C11.5695 4.47482 11.8095 5.21482 11.0745 5.94482L9.83447 7.18482C9.62447 7.39482 9.50947 7.79982 9.57447 8.08982L9.92947 9.62482C10.2095 10.8398 9.56447 11.3098 8.48947 10.6748L6.99447 9.78982C6.72447 9.62982 6.27947 9.62982 6.00447 9.78982L4.50947 10.6748C3.43947 11.3098 2.78947 10.8348 3.06947 9.62482L3.42447 8.08982C3.48947 7.79982 3.37447 7.39482 3.16447 7.18482L1.92447 5.94482C1.19447 5.21482 1.42947 4.47482 2.44947 4.30482L4.04447 4.03982C4.30947 3.99482 4.62947 3.75982 4.74947 3.51482L5.62947 1.75482C6.10947 0.799824 6.88947 0.799824 7.36447 1.75482Z" fill="currentColor"/>
</svg>
