<svg width="24" height="24" viewBox="0 0 24 24" fill="none" xmlns="http://www.w3.org/2000/svg">
<g clip-path="url(#clip0_742_2770)">
<path d="M19.5 6H4.5C2.84315 6 1.5 7.34315 1.5 9V21C1.5 22.6569 2.84315 24 4.5 24H19.5C21.1569 24 22.5 22.6569 22.5 21V9C22.5 7.34315 21.1569 6 19.5 6Z" fill="#FFD6B8"/>
<path d="M1.53335 1.76796C1.9548 0.700176 2.97528 0 4.11009 0H19.8899C21.0248 0 22.0452 0.700174 22.4667 1.76796L23.7987 5.14296C24.528 6.99039 23.1853 9 21.222 9H2.77797C0.81459 9 -0.52795 6.99039 0.201231 5.14296L1.53335 1.76796Z" fill="#FF7512"/>
<path d="M12 18.75C12 16.679 13.6789 15 15.75 15C17.821 15 19.5 16.679 19.5 18.75V24H12V18.75Z" fill="#FF7512"/>
<path d="M4.2002 10.5C5.85705 10.5 7.2002 9.15686 7.2002 7.5H1.2002C1.2002 9.15686 2.54334 10.5 4.2002 10.5Z" fill="#FF7512"/>
<path d="M9.4502 10.5C11.1071 10.5 12.4502 9.15686 12.4502 7.5H6.4502C6.4502 9.15686 7.79334 10.5 9.4502 10.5Z" fill="#FF7512"/>
<path d="M14.7002 10.5C16.357 10.5 17.7001 9.15686 17.7001 7.5H11.7002C11.7002 9.15686 13.0433 10.5 14.7002 10.5Z" fill="#FF7512"/>
<path d="M19.95 10.5C21.6069 10.5 22.95 9.15686 22.95 7.5H16.95C16.95 9.15686 18.2932 10.5 19.95 10.5Z" fill="#FF7512"/>
<path d="M9 13.5H6C5.17157 13.5 4.5 14.1716 4.5 15C4.5 15.8284 5.17157 16.5 6 16.5H9C9.82843 16.5 10.5 15.8284 10.5 15C10.5 14.1716 9.82843 13.5 9 13.5Z" fill="#FFF1E7"/>
</g>
<defs>
<clipPath id="clip0_742_2770">
<rect width="24" height="24" fill="white"/>
</clipPath>
</defs>
</svg>
