<svg width="24" height="24" viewBox="0 0 24 24" fill="none" xmlns="http://www.w3.org/2000/svg">
<g clip-path="url(#clip0_742_2770)">
<path d="M21.333 6.76562H2.66634C1.92996 6.76562 1.33301 7.37136 1.33301 8.11857V21.648C1.33301 22.3952 1.92996 23.0009 2.66634 23.0009H21.333C22.0694 23.0009 22.6663 22.3952 22.6663 21.648V8.11857C22.6663 7.37136 22.0694 6.76562 21.333 6.76562Z" fill="#FFF1E7"/>
<path d="M2.66675 1.35294C2.66675 0.605732 3.26371 0 4.00008 0H20.0001C20.7365 0 21.3334 0.605732 21.3334 1.35294V2.70588H2.66675V1.35294Z" fill="#FFBA89"/>
<path d="M2.66667 2.70605H21.3333L24 6.76488H0L2.66667 2.70605Z" fill="#FFF1E7"/>
<path d="M19.5277 16.5258C19.643 16.3801 19.9099 16.4034 20.124 16.5778C20.3382 16.7522 20.4183 17.0116 20.3031 17.1573L16.7876 21.6011C16.6724 21.7467 16.4054 21.7234 16.1913 21.549C15.9772 21.3746 15.897 21.1152 16.0123 20.9695L19.5277 16.5258Z" fill="#FFBA89"/>
<path d="M19.807 18.9965C19.9223 18.8508 20.1892 18.8741 20.4033 19.0485C20.6175 19.2229 20.6976 19.4823 20.5824 19.628L19.3965 21.127C19.2813 21.2727 19.0143 21.2494 18.8002 21.075C18.5861 20.9006 18.5059 20.6411 18.6212 20.4955L19.807 18.9965Z" fill="#FFBA89"/>
<path d="M7.66602 16.5736C7.66602 16.3868 7.88987 16.2354 8.16602 16.2354C8.44216 16.2354 8.66602 16.3868 8.66602 16.5736L8.66602 18.4958C8.66602 18.6826 8.44216 18.834 8.16602 18.834C7.88987 18.834 7.66602 18.6826 7.66602 18.4958L7.66602 16.5736Z" fill="#FFBA89"/>
<path d="M10.6663 12.1758L11.333 12.1758L11.333 22.9993L10.6663 22.9993L10.6663 12.1758Z" fill="#FFBA89"/>
<path d="M0 6.76465H6V10.4852C6 12.1665 4.65685 13.5294 3 13.5294C1.34315 13.5294 0 12.1665 0 10.4852V6.76465Z" fill="#FFBA89"/>
<path d="M6 6.76465H12V10.4852C12 12.1665 10.6569 13.5294 9 13.5294C7.34315 13.5294 6 12.1665 6 10.4852V6.76465Z" fill="#FFBA89"/>
<path d="M12 6.76465H18V10.4852C18 12.1665 16.6568 13.5294 15 13.5294C13.3432 13.5294 12 12.1665 12 10.4852V6.76465Z" fill="#FFBA89"/>
<path d="M18 6.76465H24V10.4852C24 12.1665 22.6568 13.5294 21 13.5294C19.3432 13.5294 18 12.1665 18 10.4852V6.76465Z" fill="#FFBA89"/>
</g>
<defs>
<clipPath id="clip0_742_2770">
<rect width="24" height="23" fill="white"/>
</clipPath>
</defs>
</svg>
