<svg width="48" height="48" viewBox="0 0 48 48" fill="none" xmlns="http://www.w3.org/2000/svg">
<g clip-path="url(#clip0_742_2756)">
<path d="M48 31.7501C48 40.9586 37.2548 46.4618 24 46.4618C10.7452 46.4618 0 40.9586 0 31.7501C0 22.5419 10.7452 15.0771 24 15.0771C37.2548 15.0771 48 22.5419 48 31.7501Z" fill="url(#paint0_linear_742_2756)"/>
<path fill-rule="evenodd" clip-rule="evenodd" d="M46.006 32.6124L46.1539 32.6156V31.4464V26.154C46.1548 26.113 46.1539 26.0721 46.1539 26.0309C46.1539 19.4035 35.7034 13.231 24 13.231C12.2968 13.231 1.84619 20.2035 1.84619 26.831C1.84619 27.7412 2.04329 28.5974 2.41366 29.3975L2.76927 31.6925L3.71009 31.7124C3.69831 31.8496 3.69235 31.9864 3.69235 32.1232C4.57697 37.0552 13.7075 40.9233 24.9231 40.9233C35.3434 40.9233 44.7274 37.5834 46.006 32.6124Z" fill="#F88006"/>
<path d="M8.30773 32.6156C1.4715 30.8813 2.43748 28.1643 2.06993 26.6632C2.02758 26.4902 1.84619 26.5364 1.84619 26.7143V29.4989C1.84619 31.8243 2.69583 34.0722 4.61542 35.3848C5.67692 36.1107 5.17724 36.2375 6.46158 37.2309C7.48189 38.0202 10.3091 38.8173 11.077 39.0771C13.2347 40.2874 15.6672 40.9231 18.1413 40.9231H22.0736H26.1597C32.9127 40.9231 39.5111 38.9008 45.1045 35.1171C45.1603 35.0792 45.202 35.024 45.2231 34.96L46.1539 32.1267V26.4424C45.8417 27.129 45.6024 28.9548 45.1907 29.8463C44.696 30.9175 44.0079 31.0493 43.3847 31.6925C42.084 33.0346 40.5209 32.9453 38.7693 33.846C37.4493 34.525 34.117 36.1308 31.3847 36.3079C29.0155 36.4615 26.3188 36.1367 24.9231 36.3079C21.2406 36.7596 20.8258 36.7212 17.5385 36.3079C15.5151 36.0535 13.3385 36.0385 12 35.3848C10.1438 34.4783 9.38751 32.8895 8.30773 32.6156Z" fill="#CF6730"/>
<path d="M35.0768 30.0726C35.0768 30.5825 34.2503 30.9957 33.2307 30.9957C32.211 30.9957 31.3845 30.5825 31.3845 30.0726C31.3845 29.5629 32.211 30.0731 33.2307 30.0731C34.2503 30.0731 35.0768 29.5629 35.0768 30.0726Z" fill="#CF6730"/>
<path fill-rule="evenodd" clip-rule="evenodd" d="M46.154 10.4616C46.154 11.153 46.0018 11.809 45.7293 12.3978C45.4572 12.986 45.6537 13.7743 46.1702 14.1658C47.282 15.0086 48.0001 16.3435 48.0001 17.8462C48.0001 20.3952 45.9337 22.4616 43.3847 22.4616C42.0145 22.4616 40.7837 21.8644 39.9383 20.9161C39.6466 20.589 39.1921 20.4379 38.7625 20.5245C38.4664 20.5841 38.1599 20.6154 37.8463 20.6154C35.8074 20.6154 34.0773 19.2934 33.4665 17.4599C33.3457 17.0973 33.0568 16.8083 32.694 16.6875C30.8606 16.0766 29.5386 14.3465 29.5386 12.3077C29.5386 9.75873 31.605 7.69235 34.154 7.69235C34.8453 7.69235 35.5013 7.84439 36.0902 8.11689C36.6784 8.38912 37.4667 8.19263 37.8583 7.67612C38.7009 6.56433 40.0358 5.84619 41.5386 5.84619C44.0876 5.84619 46.154 7.91257 46.154 10.4616Z" fill="#22B128"/>
<path d="M39.5166 12.1904C39.9296 12.4893 40.6063 12.2592 41.0281 11.6763C41.45 11.0935 41.4571 10.3787 41.0442 10.0798C40.6312 9.78088 39.9544 10.0111 39.5326 10.5939C39.1108 11.1768 39.1036 11.8915 39.5166 12.1904Z" fill="#61FE01"/>
<path d="M35.2257 13.2234C35.1402 12.2074 34.6591 11.4184 34.1511 11.4611C33.6431 11.5038 33.3006 12.3621 33.386 13.3781C33.4715 14.3941 33.9526 15.1831 34.4606 15.1404C34.9686 15.0977 35.3112 14.2394 35.2257 13.2234Z" fill="#61FE01"/>
<path d="M42.4616 16.9229C43.4812 16.9229 44.3078 17.3362 44.3078 17.846C44.3078 18.3558 43.4812 18.769 42.4616 18.769C41.442 18.769 40.6155 18.3558 40.6155 17.846C40.6155 17.3362 41.442 16.9229 42.4616 16.9229Z" fill="#61FE01"/>
<path d="M31.3847 12.3077C31.3847 15.3665 28.0784 17.8462 24.0001 17.8462C19.9218 17.8462 16.6155 15.3665 16.6155 12.3077C16.6155 9.24889 19.9218 4 24.0001 4C28.0784 4 31.3847 9.24889 31.3847 12.3077Z" fill="#FAD350"/>
<path fill-rule="evenodd" clip-rule="evenodd" d="M44.307 22.1507C44.307 22.9739 42.9937 22.9448 41.2284 22.9054C39.6418 22.87 37.6902 22.8266 35.9993 23.3867C35.6078 23.5165 35.2077 23.6572 34.8025 23.8038C35.4041 23.8532 35.9897 24.07 36.4874 24.4433C36.7697 24.655 36.975 24.9532 37.0719 25.2923L37.6123 27.1837C37.767 27.7256 37.8455 28.2862 37.8455 28.8497V31.5464C37.8455 31.6436 37.8359 31.7408 37.8169 31.836L37.2074 34.8829C37.031 35.7661 36.9359 36.6633 36.9239 37.5637C37.1794 37.4607 37.4807 37.3507 37.8455 37.2312C38.3618 37.0621 38.7962 37.0376 39.224 37.0134C39.6778 36.9877 40.1244 36.9626 40.6533 36.7654C41.2655 36.5376 41.6576 35.9786 42.0178 35.4338C42.325 34.9689 42.5404 34.9224 43.0461 34.8135C43.3417 34.7496 43.7366 34.6645 44.307 34.462C45.5718 34.0126 45.8225 33.0235 46.0007 32.3217L46.0217 32.2385C46.067 32.0625 46.2146 32.098 46.2073 32.2795C46.16 33.4372 46.0629 34.8083 45.3043 35.3705C45.1186 35.5082 45.0337 35.6084 44.9371 35.7222C44.8171 35.8636 44.6792 36.026 44.3083 36.3072C44.0892 36.4734 43.9849 36.8302 43.8789 37.1928C43.765 37.5833 43.6489 37.9806 43.3852 38.1534C43.2815 38.2213 43.1746 38.2922 43.0649 38.3648C42.1808 38.9494 41.1246 39.648 40.2761 39.9017L40.2359 39.9137C39.8785 40.0202 39.5126 40.1295 39.21 40.3462C37.0295 41.9097 36.521 42.2142 34.1545 42.7688C32.9936 43.0409 30.7782 42.9113 28.1873 42.7597C26.5745 42.6654 24.8162 42.5625 23.0764 42.5428C21.4047 42.524 19.7033 42.0868 18.0152 41.6533C16.9236 41.3729 15.8376 41.0939 14.7689 40.9304C14.2306 40.848 12.9801 40.2464 12.9225 40.0004C12.8145 39.5395 13.1736 39.6015 14.0023 39.7449C14.7737 39.8782 15.9519 40.0819 17.539 39.9995C17.7379 39.9892 17.9533 39.9731 18.1865 39.9556C19.165 39.8819 20.4569 39.7848 22.1545 39.9995C23.909 40.2216 26.9397 40.0784 28.268 40.0158C28.4024 40.0093 28.5194 40.0038 28.616 39.9995C30.4066 39.9209 31.1358 39.6927 31.976 39.4298C32.3414 39.3155 32.7276 39.1946 33.2314 39.0764C33.5943 38.9913 33.8962 38.9108 34.1532 38.8329V36.6349C34.1532 35.8047 34.2551 34.9778 34.4565 34.1723L35.0111 31.9534C35.0537 31.7832 35.0469 31.6041 34.9913 31.4376L34.2534 29.2239C34.1884 29.0291 34.0605 28.8617 33.8897 28.7478L31.5134 27.1636C31.4277 27.1064 31.3332 27.0641 31.2337 27.0382L27.4614 26.0574C26.929 26.1161 26.4235 26.1236 25.9542 26.0648C24.1961 25.8443 24.2288 24.8086 24.2589 23.858C24.2871 22.9669 24.3128 22.1507 22.8591 22.1507C10.4117 22.1507 8.62808 22.1507 7.61118 19.8039C7.4454 19.4213 7.36832 18.9989 7.43236 18.5869C8.1303 14.0971 16.2634 11.3867 23.8908 11.3867C32.307 10.4619 44.307 17.2868 44.307 22.1507Z" fill="#490F01"/>
<path d="M14.1239 28.3536C13.5386 28.5107 12.5255 28.8107 11.6289 27.5542" stroke="#6E3333" stroke-width="2" stroke-linecap="round"/>
<path d="M9.23071 24.9531L11.054 25.0681" stroke="#6E3333" stroke-width="2" stroke-linecap="round"/>
<path d="M16.2908 27.0229L17.8414 27.989" stroke="#6E3333" stroke-width="2" stroke-linecap="round"/>
<path d="M24.3533 7.95557C24.124 8.18229 23.7345 8.58773 22.989 8.24272" stroke="#6E3333" stroke-linecap="round"/>
<path d="M21.1948 7.67048L22.0682 7.24365" stroke="#6E3333" stroke-linecap="round"/>
<path d="M25.0042 6.76904L25.9756 6.80757" stroke="#6E3333" stroke-linecap="round"/>
<path d="M8.34274 18.7712C8.32757 18.7716 8.31793 18.7876 8.32472 18.8012L8.80576 19.7624C9.07476 20.2999 9.54673 20.7082 10.1174 20.8969C11.3603 21.3081 12.6603 21.5203 13.9694 21.5259L15.6395 21.533C15.8837 21.534 15.9632 21.2055 15.7456 21.0947L15.6888 21.0658C15.0803 20.7561 14.4063 20.5972 13.7235 20.6024L13.2615 20.6059C12.4326 20.6123 11.6144 20.4191 10.876 20.0428L10.4605 19.831C10.253 19.7252 10.0634 19.5875 9.89866 19.4227L9.84769 19.3718C9.44962 18.9737 8.90552 18.7566 8.34274 18.7712Z" fill="#8B120E"/>
<path d="M42.8671 21.2846C43.4444 21.5632 43.2459 22.4308 42.6049 22.4308L40.626 22.4308L38.9734 22.4396C38.4841 22.4422 37.9973 22.5083 37.525 22.636C37.0526 22.7638 36.5658 22.8299 36.0766 22.8325L35.6285 22.8349L35.6257 22.8282C35.8655 22.5934 36.1881 22.4617 36.5237 22.4617H36.5604C36.798 22.4617 37.0316 22.4001 37.2383 22.2829L37.5173 22.1247C37.9066 21.9038 38.3468 21.7876 38.7946 21.7876H39.5582L41.3676 21.533C41.4882 21.5161 41.6073 21.4905 41.7241 21.4564L42.436 21.2487C42.5793 21.207 42.7327 21.2197 42.8671 21.2846Z" fill="#8B120E"/>
<path d="M29.539 12.3076C29.539 13.3272 27.9948 14.1537 26.0898 14.1537C24.1849 14.1537 20.9148 14.1537 22.6408 12.3076C22.6408 11.288 24.1849 10.4614 26.0898 10.4614C27.9948 10.4614 29.539 11.288 29.539 12.3076Z" fill="#FFF386"/>
<path d="M26.7693 9.53854C27.2791 9.53854 27.6923 9.12526 27.6923 8.61546C27.6923 8.10566 27.2791 7.69238 26.7693 7.69238C26.2595 7.69238 25.8462 8.10566 25.8462 8.61546C25.8462 9.12526 26.2595 9.53854 26.7693 9.53854Z" fill="#F77B02"/>
<path d="M21.2307 10.4614C21.7405 10.4614 22.1538 10.0481 22.1538 9.53831C22.1538 9.02851 21.7405 8.61523 21.2307 8.61523C20.7209 8.61523 20.3076 9.02851 20.3076 9.53831C20.3076 10.0481 20.7209 10.4614 21.2307 10.4614Z" fill="#F77B02"/>
<path d="M26.7692 32.056C26.7692 32.8748 26.3559 33.5385 25.8462 33.5385C25.3364 33.5385 24 34.3573 24 33.5385C24 32.7197 25.3364 32.057 25.8462 32.057C26.3559 32.057 26.7692 31.2373 26.7692 32.056Z" fill="#CF6730"/>
<path d="M18.4616 22.7651C18.4616 23.4491 18.1861 24.0035 17.8463 24.0035C17.5064 24.0035 16.6155 24.6875 16.6155 24.0035C16.6155 23.3197 17.5064 22.7661 17.8463 22.7661C18.1861 22.7661 18.4616 22.0813 18.4616 22.7651Z" fill="#CF6730"/>
<path d="M3.65135 26.0731C3.69898 25.2557 4.15014 24.6171 4.65909 24.6468C5.16802 24.6763 6.54973 23.9368 6.50212 24.7541C6.45449 25.5715 5.08186 26.1555 4.57293 26.1258C4.06398 26.0962 3.60373 26.8904 3.65135 26.0731Z" fill="#CF6730"/>
<path d="M41.2437 25.4328C41.2718 24.9491 41.5389 24.5712 41.84 24.5887C42.1411 24.6062 42.9588 24.1685 42.9306 24.6522C42.9025 25.1359 42.0902 25.4815 41.7891 25.464C41.4878 25.4464 41.2155 25.9164 41.2437 25.4328Z" fill="#CF6730"/>
<path d="M38.7811 32.7848C38.8093 32.3011 39.0763 31.9232 39.3774 31.9407C39.6785 31.9583 40.4962 31.5206 40.4681 32.0043C40.4398 32.4879 39.6275 32.8335 39.3264 32.816C39.0253 32.7985 38.7528 33.2685 38.7811 32.7848Z" fill="#CF6730"/>
<path d="M29.2764 42.148C29.0949 42.1134 29.1202 41.8463 29.3048 41.8463C30.0728 41.8463 30.8373 41.746 31.5793 41.5483L32.679 41.255C33.5072 41.0342 34.3166 40.7484 35.0999 40.4002L36.0001 40.0001L37.8941 39.3688C38.0855 39.3051 38.2258 39.5506 38.0737 39.6832L37.1801 40.4617L35.7761 41.5C35.4658 41.7294 35.1213 41.9085 34.7552 42.0305C33.3017 42.515 31.7482 42.6189 30.2432 42.3322L29.2764 42.148Z" fill="#8B120E"/>
<path fill-rule="evenodd" clip-rule="evenodd" d="M34.175 28.0211C34.161 28.007 34.1448 27.9952 34.1271 27.9864L31.9658 26.9058C31.7684 26.8072 31.879 26.5081 32.0931 26.5615L34.1538 27.0768C34.7568 27.2276 35.7688 28.291 35.9902 28.8952C35.997 28.9137 36 28.9331 36 28.9528V30.7691V31.4776C36 31.687 35.7064 31.7346 35.6402 31.536L35.0863 29.8744C35.08 29.8556 35.0769 29.8358 35.0769 29.8161V28.9993C35.0769 28.9504 35.0575 28.9035 35.0228 28.8688L34.175 28.0211Z" fill="#8B120E"/>
<path d="M30.5837 26.1366C30.2928 26.5555 28.2013 25.6059 27.7826 25.3149C27.3638 25.0241 28.776 25.5014 29.0669 25.0825C29.3579 24.6634 29.4061 25.3186 29.8248 25.6094C30.2435 25.9003 30.8749 25.7175 30.5837 26.1366Z" fill="#8B120E"/>
<path d="M28.2331 12.0454C27.5701 13.7684 25.2678 13.3632 24.9231 13.2306" stroke="white" stroke-width="0.5" stroke-linecap="round"/>
<path d="M35.0089 38.0333C34.7082 39.2523 32.4505 40.1235 31.9556 40.0015C31.4606 39.8794 33.4975 39.3727 33.7982 38.1537C34.099 36.9346 34.1621 35.4828 34.657 35.6049C35.152 35.7271 35.3095 36.8143 35.0089 38.0333Z" fill="#490F01"/>
<path d="M36.1434 36.9282C36.3485 37.7598 37.9646 38.1978 38.3813 38.0949C38.7056 38.015 38.3111 37.7137 37.7763 37.2994C37.4634 37.057 37.2427 36.7138 37.1822 36.3228C37.0956 35.7625 37.076 35.3479 36.9232 35.3857C36.5065 35.4883 35.9383 36.0966 36.1434 36.9282Z" fill="#490F01"/>
<path d="M34.1586 23.6805C34.2723 24.2855 35.8192 24.5886 36.2409 24.5092C36.5138 24.4579 36.3134 24.3002 35.9606 24.0781C35.5382 23.8119 35.2567 23.3842 35.231 22.8855C35.2196 22.664 35.1984 22.5263 35.0917 22.5464C34.6698 22.6256 34.0449 23.0755 34.1586 23.6805Z" fill="#490F01"/>
</g>
<defs>
<linearGradient id="paint0_linear_742_2756" x1="56.2501" y1="18.6615" x2="19.3543" y2="30.8499" gradientUnits="userSpaceOnUse">
<stop stop-color="#FFFCF6"/>
<stop offset="0.957132" stop-color="#F9E8BB"/>
</linearGradient>
<clipPath id="clip0_742_2756">
<rect width="48" height="42.4615" fill="white" transform="translate(0 4)"/>
</clipPath>
</defs>
</svg>
