<svg width="48" height="48" viewBox="0 0 48 48" fill="none" xmlns="http://www.w3.org/2000/svg">
<g clip-path="url(#clip0_742_2756)">
<path d="M31.3847 12.3571C31.3847 15.4342 28.0784 17.9286 24.0001 17.9286C19.9218 17.9286 16.6155 15.4342 16.6155 12.3571C16.6155 9.28014 19.9218 4 24.0001 4C28.0784 4 31.3847 9.28014 31.3847 12.3571Z" fill="#FAD350"/>
<path fill-rule="evenodd" clip-rule="evenodd" d="M46.154 10.4998C46.154 11.1954 46.0018 11.8552 45.7293 12.4475C45.4572 13.0392 45.6537 13.8322 46.1702 14.2261C47.282 15.0738 48.0001 16.4167 48.0001 17.9284C48.0001 20.4925 45.9337 22.5712 43.3847 22.5712C42.0145 22.5712 40.7837 21.9705 39.9383 21.0166C39.6466 20.6875 39.1921 20.5355 38.7625 20.6226C38.4664 20.6826 38.1599 20.7141 37.8463 20.7141C35.8074 20.7141 34.0773 19.3842 33.4665 17.5398C33.3457 17.175 33.0568 16.8843 32.694 16.7627C30.8606 16.1482 29.5386 14.4079 29.5386 12.3569C29.5386 9.79276 31.605 7.71408 34.154 7.71408C34.8453 7.71408 35.5013 7.86703 36.0902 8.14114C36.6784 8.415 37.4667 8.21734 37.8583 7.69775C38.7009 6.57934 40.0358 5.85693 41.5386 5.85693C44.0876 5.85693 46.154 7.93562 46.154 10.4998Z" fill="#22B128"/>
<path d="M39.5166 12.2389C39.9296 12.5396 40.6063 12.3081 41.0281 11.7218C41.45 11.1354 41.4571 10.4164 41.0442 10.1157C40.6312 9.81504 39.9544 10.0466 39.5326 10.6329C39.1108 11.2192 39.1036 11.9383 39.5166 12.2389Z" fill="#61FE01"/>
<path d="M35.2257 13.2779C35.1402 12.2559 34.6591 11.4622 34.1511 11.5051C33.6431 11.5481 33.3006 12.4115 33.386 13.4336C33.4715 14.4556 33.9526 15.2493 34.4606 15.2064C34.9686 15.1634 35.3112 14.3 35.2257 13.2779Z" fill="#61FE01"/>
<path d="M42.4616 16.9998C43.4812 16.9998 44.3078 17.4155 44.3078 17.9284C44.3078 18.4412 43.4812 18.8569 42.4616 18.8569C41.442 18.8569 40.6155 18.4412 40.6155 17.9284C40.6155 17.4155 41.442 16.9998 42.4616 16.9998Z" fill="#61FE01"/>
<path d="M48 29.9423C48 38.1156 37.2548 43.0002 24 43.0002C10.7452 43.0002 0 38.1156 0 29.9423C0 21.7688 10.7452 15.1431 24 15.1431C37.2548 15.1431 48 21.7688 48 29.9423Z" fill="url(#paint0_linear_742_2756)"/>
<path d="M45.2308 26.2859C45.2308 33.9783 35.2156 39.2859 24.0001 39.2859C12.7844 39.2859 2.76929 34.9069 2.76929 27.2144C2.76929 19.5219 12.7844 11.4287 24.0001 11.4287C35.2156 11.4287 45.2308 18.5933 45.2308 26.2859Z" fill="#F88006"/>
<path d="M44.3076 22.2582C44.3076 23.8306 39.5718 22.3113 35.9999 23.5015C32.6438 24.6201 28.6851 26.5402 25.9546 26.1957C22.5486 25.7658 25.8643 22.2582 22.8597 22.2582C9.44787 22.2582 8.41619 22.2582 7.38452 19.3051C7.38452 14.4123 15.9144 11.4302 23.8914 11.4302C32.3076 10.4999 44.3076 17.3654 44.3076 22.2582Z" fill="url(#paint1_linear_742_2756)"/>
<path d="M15.9701 30.3554C15.3848 30.5135 14.3717 30.8152 13.4751 29.5513" stroke="#6E3333" stroke-width="2" stroke-linecap="round"/>
<path d="M11.0769 26.9351L12.9002 27.0508" stroke="#6E3333" stroke-width="2" stroke-linecap="round"/>
<path d="M18.137 29.0171L19.6875 29.9889" stroke="#6E3333" stroke-width="2" stroke-linecap="round"/>
<path d="M24.3533 7.979C24.124 8.20708 23.7345 8.61493 22.989 8.26786" stroke="#6E3333" stroke-linecap="round"/>
<path d="M21.1948 7.69256L22.0682 7.26318" stroke="#6E3333" stroke-linecap="round"/>
<path d="M25.0042 6.78564L25.9756 6.82333" stroke="#6E3333" stroke-linecap="round"/>
<path d="M25.7885 24.6947C25.5064 24.9297 25.6757 25.3908 26.0419 25.3847L27.5552 25.3596C27.6462 25.3581 27.7365 25.3449 27.8244 25.3206L33.3008 23.7924C33.4415 23.7532 33.4136 23.5448 33.2678 23.5444C33.2593 23.5444 33.251 23.5452 33.2427 23.5468L29.1305 24.3742C28.8038 24.4399 28.4726 24.4814 28.1399 24.4983L26.0161 24.6056C25.9326 24.6099 25.8527 24.6411 25.7885 24.6947Z" fill="#8B120E"/>
<path d="M43.3458 20.6352C43.545 20.9035 43.3659 21.2867 43.0334 21.3034L40.2472 21.4432C40.1624 21.4474 40.0783 21.4606 39.9961 21.4825L37.5743 22.1289C37.3701 22.1834 37.2162 21.9429 37.35 21.7785C37.3783 21.7438 37.4163 21.7187 37.4591 21.7064L40.9074 20.7237C41.0857 20.6729 41.2681 20.6382 41.4524 20.6199L42.9719 20.4693C43.1168 20.4549 43.2586 20.5179 43.3458 20.6352Z" fill="#8B120E"/>
<path d="M29.539 12.3571C29.539 13.3828 27.9948 14.2143 26.0898 14.2143C24.1849 14.2143 20.9148 14.2143 22.6408 12.3571C22.6408 11.3315 24.1849 10.5 26.0898 10.5C27.9948 10.5 29.539 11.3315 29.539 12.3571Z" fill="#FFF9C2"/>
<path d="M26.7693 9.5715C27.2791 9.5715 27.6923 9.15576 27.6923 8.64293C27.6923 8.13009 27.2791 7.71436 26.7693 7.71436C26.2595 7.71436 25.8462 8.13009 25.8462 8.64293C25.8462 9.15576 26.2595 9.5715 26.7693 9.5715Z" fill="#F77B02"/>
<path d="M21.2307 10.5002C21.7405 10.5002 22.1538 10.0845 22.1538 9.57164C22.1538 9.0588 21.7405 8.64307 21.2307 8.64307C20.7209 8.64307 20.3076 9.0588 20.3076 9.57164C20.3076 10.0845 20.7209 10.5002 21.2307 10.5002Z" fill="#F77B02"/>
</g>
<defs>
<linearGradient id="paint0_linear_742_2756" x1="56.2501" y1="18.3246" x2="20.3067" y2="31.7018" gradientUnits="userSpaceOnUse">
<stop stop-color="#FFFCF6"/>
<stop offset="0.957132" stop-color="#F9E8BB"/>
</linearGradient>
<linearGradient id="paint1_linear_742_2756" x1="24.923" y1="11.4284" x2="24.923" y2="26.2856" gradientUnits="userSpaceOnUse">
<stop stop-color="#2C0001"/>
<stop offset="1" stop-color="#2C0000"/>
</linearGradient>
<clipPath id="clip0_742_2756">
<rect width="48" height="39" fill="white" transform="translate(0 4)"/>
</clipPath>
</defs>
</svg>
